<svg xmlns="http://www.w3.org/2000/svg" enable-background="new 0 0 98 98" viewBox="0 0 98 98"><path d="M36.3496 36.9394l-.9395-1.7656c-2.3584 1.2544-4.7529 2.8315-7.1182 4.688l1.2344 1.5732C31.7998 39.6513 34.0947 38.1386 36.3496 36.9394zM28.0234 42.6552l-1.2871-1.5313c-.8281.6963-1.6572 1.4307-2.4658 2.1831l1.3633 1.4639C26.417 44.0415 27.2217 43.3296 28.0234 42.6552zM48.9971 63.9487c8.2031 0 14.877-6.6738 14.877-14.877s-6.6738-14.8765-14.877-14.8765-14.877 6.6733-14.877 14.8765S40.7939 63.9487 48.9971 63.9487zM48.9971 36.1953c7.1006 0 12.877 5.7764 12.877 12.8765 0 7.1006-5.7764 12.877-12.877 12.877s-12.877-5.7764-12.877-12.877C36.1201 41.9716 41.8965 36.1953 48.9971 36.1953z"/><path d="M55.1807,49.0717h2c0-4.5122-3.6719-8.1836-8.1846-8.1836v2C52.4063,42.8881,55.1807,45.6621,55.1807,49.0717z"/><path d="M5.3516,45.2832c-2.0889,0-3.7891,1.6997-3.7891,3.7886s1.7002,3.7886,3.7891,3.7886c1.7398,0,3.194-1.1856,3.6365-2.7866
		h5.4153c0.7147,0.924,2.5781,3.234,5.3318,5.9902l-5.8417,4.1475v11.0384c-1.6,0.4433-2.7852,1.8973-2.7852,3.6364
		c0,2.0889,1.7002,3.7886,3.7891,3.7886s3.7881-1.6997,3.7881-3.7886c0-1.7419-1.1881-3.1981-2.792-3.6388V61.2446l5.2992-3.7623
		c0.5845,0.5524,1.2029,1.1147,1.8483,1.6816v6.3945c-1.6049,0.4401-2.7939,1.8969-2.7939,3.6399
		c0,2.0889,1.6992,3.7886,3.7881,3.7886s3.7891-1.6997,3.7891-3.7886c0-1.7388-1.1841-3.1923-2.7832-3.6363v-4.7121
		c1.6617,1.3446,3.4789,2.6706,5.4287,3.8975v9.1311l-7.4287,7.4287v8.2649c-1.6049,0.4401-2.7939,1.8967-2.7939,3.6394
		c0,2.0889,1.6992,3.7886,3.7881,3.7886s3.7891-1.6997,3.7891-3.7886c0-1.7384-1.1841-3.1918-2.7832-3.6358v-7.4404l7.4287-7.4287
		v-8.7604c2.594,1.4626,5.3917,2.7031,8.3408,3.5532v6.2194l-1.855,1.8546c-0.4979-0.241-1.0491-0.3878-1.6382-0.3878
		c-2.0889,0-3.7881,1.6997-3.7881,3.7886c0,2.0894,1.6992,3.7891,3.7881,3.7891s3.7891-1.6997,3.7891-3.7891
		c0-0.7725-0.2349-1.4902-0.6336-2.09l2.3377-2.3373v-6.5424c1.6883,0.3715,3.4205,0.603,5.1895,0.6677v18.9008
		c-1.6036,0.441-2.792,1.897-2.792,3.6385c0,2.0889,1.7002,3.7886,3.7891,3.7886s3.7881-1.6997,3.7881-3.7886
		c0-1.7394-1.1848-3.1936-2.7852-3.6367V70.6719c1.767-0.0651,3.4971-0.2964,5.1836-0.6675v6.5424l2.3372,2.3376
		c-0.3984,0.5997-0.6331,1.3173-0.6331,2.0897c0,2.0894,1.6992,3.7891,3.7881,3.7891s3.7891-1.6997,3.7891-3.7891
		c0-2.0889-1.7002-3.7886-3.7891-3.7886c-0.5891,0-1.1402,0.1469-1.6379,0.3878l-1.8542-1.8546v-6.2194
		c2.9491-0.8501,5.7468-2.0906,8.3408-3.5532v8.7604l7.4287,7.4287v7.4401c-1.5994,0.4436-2.7832,1.8973-2.7832,3.636
		c0,2.0889,1.6992,3.7886,3.7881,3.7886s3.7891-1.6997,3.7891-3.7886c0-1.7423-1.1893-3.1988-2.7939-3.6392v-8.2651l-7.4287-7.4287
		v-9.1311c1.9498-1.2269,3.767-2.5529,5.4287-3.8975v4.7118c-1.5994,0.4437-2.7832,1.8974-2.7832,3.6365
		c0,2.0889,1.6992,3.7886,3.7881,3.7886s3.7891-1.6997,3.7891-3.7886c0-1.7427-1.1893-3.1993-2.7939-3.6396v-6.3947
		c0.6453-0.5668,1.2637-1.1293,1.8482-1.6816l5.2983,3.7623v10.003c-1.6036,0.441-2.792,1.897-2.792,3.6385
		c0,2.0889,1.7002,3.7886,3.7891,3.7886s3.7891-1.6997,3.7891-3.7886c0-1.7394-1.1855-3.1937-2.7861-3.6367V60.2114l-5.8408-4.1475
		c2.7538-2.7562,4.6171-5.0663,5.3318-5.9902h5.4203c0.4427,1.601,1.8976,2.7866,3.6374,2.7866
		c2.0889,0,3.7891-1.6997,3.7891-3.7886s-1.7002-3.7886-3.7891-3.7886c-1.7412,0-3.1972,1.1876-3.6386,2.7905h-5.4161
		c-0.72-0.9308-2.6161-3.2814-5.4191-6.0776l5.9249-4.208V26.7505c1.6006-0.443,2.7861-1.8973,2.7861-3.6367
		c0-2.0889-1.7002-3.7886-3.7891-3.7886s-3.7891,1.6997-3.7891,3.7886c0,1.7416,1.1884,3.1976,2.792,3.6385v10.0035l-5.3842,3.8233
		c-0.5582-0.5256-1.1493-1.0608-1.7623-1.5992v-6.5385c1.6047-0.4404,2.7939-1.8969,2.7939-3.6397
		c0-2.0889-1.7002-3.7886-3.7891-3.7886s-3.7881,1.6997-3.7881,3.7886c0,1.7391,1.1838,3.1929,2.7832,3.6365v4.8557
		c-1.6617-1.3445-3.4789-2.6705-5.4287-3.8973v-9.275l7.4287-7.4287V8.4277c1.6047-0.4404,2.7939-1.8969,2.7939-3.6392
		C77.7471,2.6997,76.0469,1,73.958,1s-3.7881,1.6997-3.7881,3.7886c0,1.7387,1.1838,3.1924,2.7832,3.636v7.4401l-7.4287,7.4287
		v8.9044c-2.594-1.4626-5.3917-2.7031-8.3408-3.5532v-6.3635l1.8542-1.8546c0.4977,0.241,1.0488,0.3878,1.6379,0.3878
		c2.0889,0,3.7891-1.6997,3.7891-3.7886s-1.7002-3.7886-3.7891-3.7886s-3.7881,1.6997-3.7881,3.7886
		c0,0.7723,0.2347,1.49,0.6331,2.0897l-2.3372,2.3376v6.6865c-1.6865-0.371-3.4166-0.6024-5.1836-0.6675V8.4252
		c1.6003-0.4431,2.7852-1.8972,2.7852-3.6367C52.7852,2.6997,51.0859,1,48.9971,1S45.208,2.6997,45.208,4.7885
		c0,1.7416,1.1884,3.1976,2.792,3.6385v19.0448c-1.769,0.0647-3.5012,0.2963-5.1895,0.6677v-6.6865l-2.3377-2.3373
		c0.3987-0.5997,0.6336-1.3175,0.6336-2.09c0-2.0889-1.7002-3.7886-3.7891-3.7886s-3.7881,1.6997-3.7881,3.7886
		s1.6992,3.7886,3.7881,3.7886c0.5891,0,1.1403-0.1469,1.6382-0.3878l1.855,1.8546v6.3635
		c-2.9491,0.8501-5.7468,2.0905-8.3408,3.5532v-8.9044l-7.4287-7.4287V8.4243c1.5991-0.444,2.7832-1.8974,2.7832-3.6358
		C27.8242,2.6997,26.124,1,24.0352,1s-3.7881,1.6997-3.7881,3.7886c0,1.7427,1.189,3.1993,2.7939,3.6394v8.2649l7.4287,7.4287v9.275
		c-1.9498,1.2268-3.767,2.5528-5.4287,3.8973V32.438c1.5991-0.444,2.7832-1.8975,2.7832-3.6363
		c0-2.0889-1.7002-3.7886-3.7891-3.7886s-3.7881,1.6997-3.7881,3.7886c0,1.743,1.189,3.1998,2.7939,3.6399v6.5383
		c-0.613,0.5385-1.2042,1.0736-1.7623,1.5992l-5.3851-3.8238V26.7525c1.6039-0.4407,2.792-1.8969,2.792-3.6388
		c0-2.0889-1.6992-3.7886-3.7881-3.7886s-3.7891,1.6997-3.7891,3.7886c0,1.7391,1.1851,3.1931,2.7852,3.6364v11.0384l5.9258,4.2076
		c-2.8029,2.7961-4.699,5.1467-5.4189,6.0775H8.9893C8.5481,46.4707,7.0928,45.2832,5.3516,45.2832z M5.3516,50.8603
		c-0.9863,0-1.7891-0.8022-1.7891-1.7886s0.8027-1.7886,1.7891-1.7886s1.7881,0.8022,1.7881,1.7886S6.3379,50.8603,5.3516,50.8603z
		 M16.6855,74.8862c0,0.9863-0.8018,1.7886-1.7881,1.7886s-1.7891-0.8022-1.7891-1.7886s0.8027-1.7886,1.7891-1.7886
		S16.6855,73.8999,16.6855,74.8862z M25.8242,93.2114c0,0.9863-0.8027,1.7886-1.7891,1.7886s-1.7881-0.8022-1.7881-1.7886
		s0.8018-1.7886,1.7881-1.7886S25.8242,92.2251,25.8242,93.2114z M37.3174,82.7631c-0.9863,0-1.7881-0.8027-1.7881-1.7891
		s0.8018-1.7886,1.7881-1.7886s1.7891,0.8022,1.7891,1.7886S38.3037,82.7631,37.3174,82.7631z M60.6758,79.1855
		c0.9863,0,1.7891,0.8022,1.7891,1.7886s-0.8027,1.7891-1.7891,1.7891s-1.7881-0.8027-1.7881-1.7891
		S59.6895,79.1855,60.6758,79.1855z M75.7471,93.2114c0,0.9863-0.8027,1.7886-1.7891,1.7886s-1.7881-0.8022-1.7881-1.7886
		s0.8018-1.7886,1.7881-1.7886S75.7471,92.2251,75.7471,93.2114z M84.8857,74.8862c0,0.9863-0.8027,1.7886-1.7891,1.7886
		s-1.7891-0.8022-1.7891-1.7886s0.8027-1.7886,1.7891-1.7886S84.8857,73.8999,84.8857,74.8862z M92.6484,47.2832
		c0.9863,0,1.7891,0.8022,1.7891,1.7886s-0.8027,1.7886-1.7891,1.7886s-1.7891-0.8022-1.7891-1.7886
		S91.6621,47.2832,92.6484,47.2832z M81.3076,23.1137c0-0.9863,0.8027-1.7886,1.7891-1.7886s1.7891,0.8022,1.7891,1.7886
		s-0.8027,1.7886-1.7891,1.7886S81.3076,24.1001,81.3076,23.1137z M72.1699,4.7885C72.1699,3.8022,72.9717,3,73.958,3
		s1.7891,0.8022,1.7891,1.7886s-0.8027,1.7886-1.7891,1.7886S72.1699,5.7749,72.1699,4.7885z M60.6758,15.2373
		c0.9863,0,1.7891,0.8022,1.7891,1.7886s-0.8027,1.7886-1.7891,1.7886s-1.7881-0.8022-1.7881-1.7886
		S59.6895,15.2373,60.6758,15.2373z M37.3174,18.8144c-0.9863,0-1.7881-0.8022-1.7881-1.7886s0.8018-1.7886,1.7881-1.7886
		s1.7891,0.8022,1.7891,1.7886S38.3037,18.8144,37.3174,18.8144z M22.2471,4.7885C22.2471,3.8022,23.0488,3,24.0352,3
		s1.7891,0.8022,1.7891,1.7886s-0.8027,1.7886-1.7891,1.7886S22.2471,5.7749,22.2471,4.7885z M13.1084,23.1137
		c0-0.9863,0.8027-1.7886,1.7891-1.7886s1.7881,0.8022,1.7881,1.7886s-0.8018,1.7886-1.7881,1.7886S13.1084,24.1001,13.1084,23.1137
		z M25.8242,69.1982c0,0.9863-0.8027,1.7886-1.7891,1.7886s-1.7881-0.8022-1.7881-1.7886s0.8018-1.7891,1.7881-1.7891
		S25.8242,68.2119,25.8242,69.1982z M50.7852,93.2114c0,0.9863-0.8018,1.7886-1.7881,1.7886s-1.7891-0.8022-1.7891-1.7886
		s0.8027-1.7886,1.7891-1.7886S50.7852,92.2251,50.7852,93.2114z M75.7471,69.1982c0,0.9863-0.8027,1.7886-1.7891,1.7886
		s-1.7881-0.8022-1.7881-1.7886s0.8018-1.7891,1.7881-1.7891S75.7471,68.2119,75.7471,69.1982z M72.1699,28.8017
		c0-0.9863,0.8018-1.7886,1.7881-1.7886s1.7891,0.8022,1.7891,1.7886s-0.8027,1.7891-1.7891,1.7891S72.1699,29.788,72.1699,28.8017z
		 M47.208,4.7885C47.208,3.8022,48.0107,3,48.9971,3s1.7881,0.8022,1.7881,1.7886s-0.8018,1.7886-1.7881,1.7886
		S47.208,5.7749,47.208,4.7885z M22.2471,28.8017c0-0.9863,0.8018-1.7886,1.7881-1.7886s1.7891,0.8022,1.7891,1.7886
		s-0.8027,1.7891-1.7891,1.7891S22.2471,29.788,22.2471,28.8017z M48.9971,29.4394c16.3252,0,30.1631,16.2871,32.832,19.6323
		c-2.6689,3.3457-16.5068,19.6328-32.832,19.6328S18.834,52.4174,16.165,49.0717C18.834,45.7265,32.6719,29.4394,48.9971,29.4394z"/></svg>