<svg xmlns="http://www.w3.org/2000/svg" data-name="Layer 3" viewBox="0 0 64 64"><rect width="2" height="5.046" x="28.784" y="31.261" fill="#a381bd" transform="rotate(-45 29.785 33.784)"/><rect width="4.592" height="2" x="32.08" y="32.624" fill="#a381bd" transform="rotate(-45 34.376 33.624)"/><polygon fill="#bdbdbe" points="39 28 39 16 34 12 34 6 38 2 38 8 42 10 46 8 46 2 50 6 50 12 45 16 45 32 39 28"/><path fill="#e5e5e5" d="M46,8l-4,2L38,8V3.3L35.819,5.485A1.762,1.762,0,0,0,35.3,6.728v4.427a1.759,1.759,0,0,0,.66,1.373l3.681,2.944a1.758,1.758,0,0,1,.659,1.373V28L45,31.13V16l5-4V6L46,2Z"/><polygon fill="#bdbdbe" points="19 28 19 16 14 12 14 6 18 2 18 8 22 10 26 8 26 2 30 6 30 12 25 16 25 30 19 28"/><path fill="#e5e5e5" d="M26,8l-4,2L18,8V3.3L15.819,5.485A1.762,1.762,0,0,0,15.3,6.728v4.427a1.759,1.759,0,0,0,.66,1.373l3.681,2.944a1.758,1.758,0,0,1,.659,1.373V28L25,30.13V16l5-4V6L26,2Z"/><path fill="#a381bd" d="M27.445 41.832l-3-2A1 1 0 0 1 24 39V37h2v1.465l2.555 1.7zM28 45H23a1 1 0 0 1-1-1V41h2v2h4zM25 50a1 1 0 0 1-.707-.293l-2-2 1.414-1.414 1.42 1.42 2.318-1.545 1.11 1.664-3 2A1 1 0 0 1 25 50zM36.555 41.832l-1.11-1.664L38 38.465V37h2v2a1 1 0 0 1-.445.832zM41 45H36V43h4V41h2v3A1 1 0 0 1 41 45zM39 50a1 1 0 0 1-.555-.168l-3-2 1.11-1.664 2.318 1.545 1.42-1.42 1.414 1.414-2 2A1 1 0 0 1 39 50z"/><path fill="#1f394c" d="M48.669,38.667a16.9,16.9,0,0,0-2.526-6.1l2.12-2.592-4.242-4.242-2.592,2.12a16.9,16.9,0,0,0-6.1-2.526L35,22H29l-.333,3.331a16.9,16.9,0,0,0-6.1,2.526l-2.592-2.12-4.242,4.242,2.12,2.592a16.9,16.9,0,0,0-2.526,6.1L12,39v6l3.331.333a16.9,16.9,0,0,0,2.526,6.1l-2.12,2.592,4.242,4.242,2.592-2.12a16.9,16.9,0,0,0,6.1,2.526L29,62h6l.333-3.331a16.9,16.9,0,0,0,6.1-2.526l2.592,2.12,4.242-4.242-2.12-2.592a16.9,16.9,0,0,0,2.526-6.1L52,45V39ZM32,55A13,13,0,1,1,45,42,13,13,0,0,1,32,55Z"/><path fill="#2f5571" d="M41.429,56.143l2.592,2.12,4.242-4.242-2.12-2.592a16.9,16.9,0,0,0,2.526-6.1L52,45V39l-3.331-.333a16.9,16.9,0,0,0-2.526-6.1l2.12-2.592-4.242-4.242-2.592,2.12a16.9,16.9,0,0,0-6.1-2.526L35,22H32v7a13,13,0,0,1,0,26v7h3l.333-3.331A16.9,16.9,0,0,0,41.429,56.143Z"/><path fill="#662d91" d="M34.383,38.724A6.257,6.257,0,0,1,37,44c0,3.314-2.239,6-5,6s-5-2.686-5-6a6.27,6.27,0,0,1,2.569-5.244Z"/><path fill="#8557a7" d="M34.383,38.724,32,38.74V50c2.761,0,5-2.686,5-6A6.257,6.257,0,0,0,34.383,38.724Z"/><path d="M52.1,38.005l-2.611-.261a17.777,17.777,0,0,0-2.113-5.1l1.662-2.032a1,1,0,0,0-.067-1.34L46,26.3V16.48l4.625-3.7A1,1,0,0,0,51,12V6a1,1,0,0,0-.293-.707l-4-4A1,1,0,0,0,45,2V7.382l-3,1.5-3-1.5V2a1,1,0,0,0-1.707-.707l-4,4A1,1,0,0,0,33,6v6a1,1,0,0,0,.375.781L38,16.48v8.56a17.71,17.71,0,0,0-1.744-.529L35.995,21.9A1,1,0,0,0,35,21H29a1,1,0,0,0-1,.9l-.261,2.611A17.71,17.71,0,0,0,26,25.04V16.48l4.625-3.7A1,1,0,0,0,31,12V6a1,1,0,0,0-.293-.707l-4-4A1,1,0,0,0,25,2V7.382l-3,1.5-3-1.5V2a1,1,0,0,0-1.707-.707l-4,4A1,1,0,0,0,13,6v6a1,1,0,0,0,.375.781L18,16.48V26.3l-2.97,2.971a1,1,0,0,0-.067,1.34l1.662,2.032a17.751,17.751,0,0,0-2.114,5.1l-2.611.261A1,1,0,0,0,11,39v6a1,1,0,0,0,.9.995l2.611.261a17.745,17.745,0,0,0,2.114,5.1l-1.662,2.031a1,1,0,0,0,.067,1.34l4.242,4.243a1,1,0,0,0,1.34.067l2.032-1.662a17.777,17.777,0,0,0,5.1,2.113l.261,2.611a1,1,0,0,0,1,.9h6a1,1,0,0,0,.995-.9l.261-2.611a17.765,17.765,0,0,0,5.1-2.113l2.032,1.662a1,1,0,0,0,1.34-.067l4.243-4.243a1,1,0,0,0,.067-1.34l-1.662-2.032a17.765,17.765,0,0,0,2.113-5.1L52.1,46A1,1,0,0,0,53,45V39A1,1,0,0,0,52.1,38.005ZM35,11.52V6.414l2-2V8a1,1,0,0,0,.553.895l4,2a1,1,0,0,0,.894,0l4-2A1,1,0,0,0,47,8V4.414l2,2V11.52l-4.625,3.7A1,1,0,0,0,44,16v8.747a.99.99,0,0,0-.612.215l-2.032,1.663c-.442-.27-.9-.515-1.356-.744V16a1,1,0,0,0-.375-.781Zm-20,0V6.414l2-2V8a1,1,0,0,0,.553.895l4,2a1,1,0,0,0,.894,0l4-2A1,1,0,0,0,27,8V4.414l2,2V11.52l-4.625,3.7A1,1,0,0,0,24,16v9.881c-.461.229-.914.474-1.356.744l-2.032-1.663A.99.99,0,0,0,20,24.747V16a1,1,0,0,0-.375-.781ZM51,44.1l-2.431.243a1,1,0,0,0-.881.8,15.844,15.844,0,0,1-2.376,5.736,1,1,0,0,0,.057,1.188l1.548,1.892-2.963,2.963-1.892-1.548a1,1,0,0,0-1.188-.057,15.844,15.844,0,0,1-5.736,2.376,1,1,0,0,0-.8.881L34.1,61h-4.19l-.243-2.431a1,1,0,0,0-.8-.881,15.846,15.846,0,0,1-5.735-2.376,1,1,0,0,0-1.189.057l-1.892,1.548-2.962-2.963,1.547-1.892a1,1,0,0,0,.058-1.188,15.828,15.828,0,0,1-2.377-5.736,1,1,0,0,0-.881-.8L13,44.1v-4.19l2.431-.243a1,1,0,0,0,.881-.8,15.823,15.823,0,0,1,2.377-5.735,1,1,0,0,0-.058-1.189l-1.547-1.892,2.962-2.963,1.892,1.548a1,1,0,0,0,1.189.058,15.823,15.823,0,0,1,5.735-2.377,1,1,0,0,0,.8-.881L29.905,23H34.1l.243,2.431a1,1,0,0,0,.8.881,15.823,15.823,0,0,1,5.735,2.377,1,1,0,0,0,1.189-.058l1.892-1.548,2.963,2.963-1.548,1.892a1,1,0,0,0-.057,1.189,15.846,15.846,0,0,1,2.376,5.735,1,1,0,0,0,.881.8L51,39.905Z"/><path d="M32,56A14,14,0,1,0,18,42,14.015,14.015,0,0,0,32,56Zm0-26A12,12,0,1,1,20,42,12.013,12.013,0,0,1,32,30Z"/><circle cx="32" cy="37" r="3" fill="#4d226d"/><path d="M25.127,47.713l-1.42-1.42-1.414,1.414,2,2a1,1,0,0,0,1.262.125l1.9-1.27a5.448,5.448,0,0,0,9.082,0l1.9,1.27a1,1,0,0,0,1.262-.125l2-2-1.414-1.414-1.42,1.42L37.5,46.8a7.847,7.847,0,0,0,.435-1.8H41a1,1,0,0,0,1-1V41H40v2H37.935a7.927,7.927,0,0,0-.438-1.8l2.058-1.372A1,1,0,0,0,40,39V37H38v1.465l-1.462.974A6.472,6.472,0,0,0,35.7,38.5a3.923,3.923,0,0,0-.689-4.1l1.693-1.693-1.414-1.414-1.954,1.954a3.753,3.753,0,0,0-2.678,0l-1.954-1.954-1.414,1.414L28.986,34.4a3.922,3.922,0,0,0-.69,4.095,6.491,6.491,0,0,0-.833.945L26,38.465V37H24v2a1,1,0,0,0,.445.832l2.061,1.374A7.873,7.873,0,0,0,26.066,43H24V41H22v3a1,1,0,0,0,1,1h3.068a7.847,7.847,0,0,0,.435,1.8ZM28,44a5.525,5.525,0,0,1,1.51-3.9,3.963,3.963,0,0,0,1.49.753v7.964A4.92,4.92,0,0,1,28,44Zm5,4.822V40.858a3.975,3.975,0,0,0,1.49-.752A5.512,5.512,0,0,1,36,44,4.92,4.92,0,0,1,33,48.822ZM34,37a2,2,0,1,1-2-2A2,2,0,0,1,34,37Z"/></svg>