<svg xmlns="http://www.w3.org/2000/svg" enable-background="new 0 0 66 66" viewBox="0 0 66 66"><path fill="#475D6B" d="M27.3,1c-0.9,0-3.7,2.3-4.2,2.6c-3.7,2.7-6.3,8.5-6.3,13.9c0,7.2,4.7,13,10.5,13c5.8,0,10.5-5.8,10.5-13
				c0-5.4-2.6-11.3-6.4-14C30.9,3.2,28.2,1,27.3,1z"/><path fill="#3C4D56" d="M31.4,3.6c-0.5-0.4-3-2.4-4-2.5v29.5c5.7-0.1,10.4-5.9,10.4-13C37.8,12.1,35.2,6.2,31.4,3.6z"/><path fill="#293B48" d="M37.1,20.4c0-2.9-1.1-5.5-2.8-7.4c0,0,0,0,0,0c-1.8-1.9-4.1-3-6.7-3c-3.2,0-6,1.7-7.7,4.3
				c-1.1,1.7-1.8,3.8-1.8,6.1c0,0.9,0,2.1,0.1,3l-0.4-0.3l3.5,9.6l3.9-2.2c0.8,0.2,1.6,0.3,2.4,0.3c0.6,0,1.3-0.1,1.9-0.2l4.7,1.2
				l2.5-7l-0.6,0.3C36.7,23.7,37.1,22.1,37.1,20.4z"/><path fill="#D6B8A0" d="M45.5,41.7c-0.6-5.8-4.8-7.5-4.8-7.5l-10.3-4.1h-3.1h-3.1l-10.3,4.1c0,0-4.1,1.7-4.8,7.5
				c-0.3,2.7-1,5.6-1.6,7.9C7,52,8.7,54.2,11.1,54.2h16.3h16.3c2.4,0,4.1-2.2,3.5-4.5C46.4,47.4,45.8,44.5,45.5,41.7z"/><rect width="6.2" height="5.4" x="24.2" y="25.7" fill="#C7A38B"/><rect width="3.1" height="5.4" x="24.2" y="25.7" fill="#D6B8A0"/><path fill="#D6B8A0" d="M35.1,14.7C35.1,14.7,35.1,14.7,35.1,14.7c-0.2-0.6-0.8-1.8-0.8-1.8c-1.8-1.9-4.1-2.8-6.7-2.8
				c-3.2,0-6,1.5-7.7,4.2c-0.2,0.5-0.3,1-0.4,1.5c-0.2,0.7-0.2,1.4-0.2,2.2c0,5.1,3.7,9.3,8.2,9.3c4.5,0,8.2-4.1,8.2-9.3
				C35.6,16.8,35.4,15.7,35.1,14.7z"/><path fill="#C7A38B" d="M19.8,14.3c-0.2,0.5-0.3,1-0.4,1.5c-0.2,0.7-0.2,1.4-0.2,2.2c0,5.1,3.7,9.3,8.2,9.3c0,0,0.1,0,0.1,0v-17
				C24.4,10.2,21.6,11.7,19.8,14.3z"/><path fill="#E9674A" d="M43.6,54.2H11.1c-2.4,0-4.1-2.2-3.5-4.5c0.6-2.3,1.3-5.2,1.6-8c0.6-5.8,4.8-7.5,4.8-7.5l8-3.2
				c1.5,1.2,3.4,1.8,5.4,1.8c2,0,3.9-0.7,5.4-1.8l8,3.2c0,0,4.2,1.7,4.8,7.5c0.3,2.7,1,5.6,1.6,8C47.7,52,46,54.2,43.6,54.2z"/><path fill="#3C4D56" d="M45,55.3l-17.1,5.2L9.7,55.2c-1.9-0.6-3-2.5-2.5-4.4c0.7-2.5,1.6-5.9,1.9-9.1c0.6-5.8,4.8-7.5,4.8-7.5
				l7.2-2.8c1.5,1.2,4.2,3.6,6.2,3.6c2,0,4.5-2.5,6-3.7l7.4,2.9c0,0,4.2,1.7,4.8,7.5c0.3,3.2,1.2,6.6,1.9,9.1
				C48,52.7,46.9,54.7,45,55.3z"/><path fill="#3C4D56" d="M37.8,16.3L37.1,20c0,0-0.3,6.4-4,11.1c-1.3,1.6-3.6,3-5.8,3.9h2.6c2.6,0,4.9-1.6,5.9-4.1
				C37.3,27.4,38.8,22.1,37.8,16.3z"/><path fill="#475D6B" d="M21.6,31.1c-3.6-4.7-4-11.1-4-11.1l-0.7-3.7c-1,5.8,0.5,11.2,1.9,14.7c1,2.5,3.4,4.1,5.9,4.1h2.6
				C25.2,34.1,22.8,32.7,21.6,31.1z"/><path fill="#D5D9DC" d="M44.8,37.5H10.4c-1,0-1.7,0.8-1.6,1.8l1.9,20.8c0.1,0.9,0.8,1.5,1.6,1.5h30.6c0.9,0,1.6-0.7,1.6-1.5
				l1.9-20.8C46.5,38.4,45.8,37.5,44.8,37.5z"/><path fill="#3C4D56" d="M34.3,12.9c-1.8-1.9-4.1-3-6.7-3c-3.2,0-6,1.7-7.7,4.3c-0.2,0.5-0.3,1-0.4,1.5c5-0.8,8.9-4,10.3-5.4
				c0.8,0.9,2.8,2.5,5.4,4.4c0,0,0,0,0,0C35,14.1,34.3,12.9,34.3,12.9z"/><path fill="#293B48" d="M34.3,12.9c-1.8-1.9-4.1-3-6.7-3c0,0-0.1,0-0.1,0v2.2c1-0.7,1.8-1.4,2.2-1.9c0.8,0.9,2.8,2.5,5.4,4.4
				c0,0,0,0,0,0C35,14.1,34.3,12.9,34.3,12.9z"/><rect width="49.1" height="3.4" x="3" y="61.6" fill="#D6B8A0"/><rect width="24.6" height="3.4" x="3" y="61.6" fill="#C7A38B"/><path fill="#B6BBBF" d="M27.6 37.5H10.4c-1 0-1.7.8-1.6 1.8l.9 10.2h17.9V37.5zM27.6 49.6v12h15.3c.9 0 1.6-.7 1.6-1.5l1-10.5H27.6z"/><ellipse cx="27.6" cy="49.6" fill="#FFF" rx="3.4" ry="2.4"/><polygon fill="#E1B724" points="63 45.4 39.1 45.4 39.1 30.3 51 20.1 63 30.3"/><rect width="20.3" height="18.2" x="40.9" y="22.4" fill="#E7E7E9"/><rect width="10.3" height="18.2" x="40.9" y="22.4" fill="#D5D9DC"/><rect width="14.3" height="2.1" x="43.9" y="25.4" fill="#E9674A"/><rect width="14.3" height="2.1" x="43.9" y="29.2" fill="#2089B8"/><rect width="14.3" height="2.1" x="43.9" y="33" fill="#2089B8"/><polygon fill="#FBD32D" points="51.2 37.8 63 45.4 63 30.3"/><polygon fill="#FBD32D" points="51.2 37.8 39.1 45.4 39.1 30.3"/><polygon fill="#CEA92C" points="39.1 45.4 51.2 35.9 63 45.4"/><g><path fill="#475D6B" d="M8.7,22.2c-2.5,0-4.5,2-4.5,4.5v2.4h1.5v-2.4c0-1.7,1.4-3,3-3c1.7,0,3,1.4,3,3v3.8H7.1v0.2H4.2V32h9v-5.3
				C13.2,24.2,11.2,22.2,8.7,22.2z"/><path fill="#E9674A" d="M13.6,30.1H3.8c-0.4,0-0.8,0.4-0.8,0.8v9.2c0,0.4,0.4,0.8,0.8,0.8h9.8c0.4,0,0.8-0.4,0.8-0.8v-9.2
			C14.4,30.4,14.1,30.1,13.6,30.1z"/><path fill="#DA5339" d="M14.4 35.7v-4.8c0-.4-.4-.8-.8-.8H8.7v5.6H14.4zM3 35.7v4.4c0 .4.4.8.8.8h4.9v-5.2H3z"/><path fill="#475D6B" d="M9.9,34.9c0-0.7-0.5-1.2-1.2-1.2s-1.2,0.5-1.2,1.2c0,0.4,0.3,0.8,0.6,1v1.8h1.2v-1.8
			C9.7,35.7,9.9,35.4,9.9,34.9z"/></g><g><path fill="#3C4D56" d="M31.9,21.8c-0.4,0.2-1.3,0.4-2-0.4c-1.2-1.3-2-0.8-2.3-0.3c-0.4-0.5-1.1-1-2.3,0.3c-0.8,0.8-1.6,0.6-2,0.4
			c-0.1,0-0.2,0.1-0.2,0.2c0.4,0.9,1.8,3.1,4.3,1.1c0.1-0.1,0.2-0.2,0.2-0.2c0.1,0.1,0.2,0.2,0.2,0.2c2.5,2,3.9-0.2,4.3-1.1
			C32.1,21.9,32,21.7,31.9,21.8z"/><path fill="#475D6B" d="M31.9,21.8c-0.4,0.2-1.3,0.4-2-0.4c-1.2-1.3-2-0.8-2.3-0.3v1.8c0.1,0.1,0.2,0.2,0.2,0.2
				c2.5,2,3.9-0.2,4.3-1.1C32.1,21.9,32,21.7,31.9,21.8z"/></g></svg>