<svg xmlns="http://www.w3.org/2000/svg" enable-background="new 0 0 79 79" viewBox="0 0 79 79"><path fill="#FFF" d="M35.2949486,70.3240891c0,0.3249512,0.2129135,0.6499634,0.6387444,0.8964615
		c0.4314003,0.2464905,0.9860878,0.3697433,1.5408058,0.3642044c0.5602913,0,1.1093712-0.1177139,1.5351982-0.369812
		l9.7322922-5.5692825l0.0056076-1.7514l1.193428-0.7057495v0.5857162
		c4.8969574,2.6950417,12.6682243,2.6557884,17.4979477-0.1456795c2.4820938-1.4287071,3.7147522-3.3056755,3.7147522-5.1771049
		l-0.0112228-2.496563c0-1.8545341-1.2214355-3.7091408-3.6530838-5.1210899
		c-4.8801689-2.8351173-12.8083344-2.8518715-17.722084-0.0168228c-2.504528,1.4455986-3.7483635,3.3281746-3.7427902,5.2051468
		l0.011219,1.8769684c0.0056076,1.2326851,0.5435028,2.4540863,1.6192551,3.5522385l-1.0981865,0.6332016l-0.8852386-0.5099525
		l-9.7435112,5.5693512c-0.4381714,0.2574387-0.6425018,0.5899048-0.6254387,0.9239502
		c-0.0003395-0.0072479-0.0020866-0.0145645-0.0020866-0.0218887v0.0448685L35.2949486,70.3240891z"/><path fill="#D9DADF" d="M68.7367477,55.9786415c-0.0111465,0.6128311-0.1782837,1.2145195-0.4902649,1.7827835
		c-0.479126,0.880249-1.3370895,1.6936455-2.5181885,2.373333c-1.9276352,1.1142387-4.4681015,1.7270737-7.1757088,1.7270737
		c-2.7076035,0-5.2592125-0.6128349-7.1757088-1.7270737c-1.1365242-0.657402-1.9610634-1.448513-2.4513283-2.3064766
		c-0.3342705-0.5905495-0.5014076-1.2145233-0.5014076-1.8496399c0.0111427-1.5710793,1.0808144-3.0418777,3.0195923-4.1672592
		c1.9387779-1.1142426,4.4681053-1.7159309,7.164566-1.7159309c2.7187462,0,5.270359,0.6128311,7.1868515,1.7270699
		C67.7005005,52.925621,68.7478867,54.4075623,68.7367477,55.9786415"/><path fill="#D9DADF" d="M65.7282944,60.1348c-1.9276237,1.1141968-4.4681015,1.7269897-7.1757011,1.7269897
		c-2.7076035,0-5.2592201-0.612793-7.1757011-1.7269897c-1.1365356-0.6574745-1.961071-1.4485626-2.4513321-2.306488
		c-0.2078247-0.3671722-0.3432426-0.7481804-0.4218636-1.1357994c0.2711105-1.3109703,1.2857246-2.5237083,2.940033-3.4839058
		c1.9387894-1.1143188,4.4680977-1.7159729,7.1645584-1.7159729c2.7187729,0,5.270359,0.612793,7.1868706,1.7271118
		c1.6061707,0.9298401,2.593544,2.1302147,2.8601913,3.4249649c-0.0784988,0.3815575-0.2110062,0.7563248-0.4088593,1.116703
		C67.7673721,58.6416817,66.9093857,59.4550476,65.7282944,60.1348z"/><polygon fill="#FFF" points="46.442 62.151 48.339 61.056 49.94 61.986 48.047 63.079"/><polygon fill="#FFF" points="48.047 63.079 49.94 61.986 49.943 63.188 48.748 63.894 48.753 63.485"/><path fill="#979AAB" d="M71.4150085,55.9556427c-0.0355835-0.1035919,0.2841492-2.9723129-3.789978-5.3601074
			c-2.4100342-1.3898926-5.6099854-2.1599121-9.0100098-2.1599121c-3.3800049,0-6.5700073,0.7600098-8.9799805,2.1499023
			c-2.4900513,1.4400635-3.8699951,3.3701172-3.8800049,5.4200439v0.0300293l0.0100098,1.8699951
			c0.0299683,0.8399658,0.6299438,2.2299805,1.4599609,3.4799805l-0.6799927,0.3900146l-0.7399902-0.4300537
			c-0.0800171-0.0499268-0.1799927-0.0499268-0.2600098,0l-9.75,5.5700684
			c-0.4799805,0.2800293-0.7600098,0.6699219-0.7600098,1.0999756c0,0,0,0.0100098,0,0.0200195v0.0100098l-0.0100098,2.2799072
			c0,1.021225,1.3600044,1.5300293,2.4200439,1.5300293v-0.2700195V71.315506c-0.6893463,0-1.8800049-0.306076-1.8800049-0.9899902
			v-1.3299561c1.1529427,0.770195,2.6241264,0.6819763,3.5799561,0.1600342l9.3400269-5.3400879v0.0800781v1.5900879l-9.6099854,5.5
			c-0.3699951,0.2099609-0.8599854,0.329834-1.4000244,0.329834l-0.0299683,0.2700195l0.0299683,0.2700195
			c0.6300049,0,1.2200317-0.1499023,1.6699829-0.4099121l9.7400513-5.5700684
			c0.0799561-0.0500488,0.1300049-0.1398926,0.1300049-0.2299805v-1.5999756l0.4299927-0.25
			c0.0299683,0.0198975,0.0700073,0.039917,0.0999756,0.0599365c2.4099731,1.4000244,5.6099854,2.1700439,9.0100098,2.1700439
			c3.3999634,0,6.5999756-0.7700195,9.0200195-2.1600342C72.7410126,60.8781166,71.1271133,57.3354225,71.4150085,55.9556427z
			 M49.9049988,51.0456085c4.8784409-2.8055344,12.6973114-2.7539101,17.4500122,0.0198975
			c4.5894623,2.6688766,4.8220444,6.9692917-0.0599976,9.8300781c-4.7690773,2.7631302-12.6448212,2.8180237-17.4899902-0.0100098
			c-1.8615417-1.0846443-3.5100098-2.7531967-3.5100098-4.8800049
			C46.2950134,54.1555939,47.5750427,52.3955841,49.9049988,51.0456085z M48.3349915,61.3655548l1.0700073,0.6201172
			c-0.1000099,0.0578537-1.3099709,0.7578049-1.2099609,0.6999512h-0.0100098l-0.0300293,0.0200195l-1.0599976-0.6201172
			C47.195179,62.027359,48.4351692,61.3073883,48.3349915,61.3655548z M38.8850403,68.6956329
			c-1.1684418,0.675621-3.3200073,0.2071381-3.3200073-0.6600342c0-0.2399902,0.1799927-0.4700928,0.5-0.6600342
			l9.6099854-5.4899902l0.5100098,0.2900391c0,0.0799561,0.0499878,0.1599121,0.1199951,0.2099609
			c0.0999985,0.0575447,1.9045181,1.0959435,1.789978,1.0300293L38.8850403,68.6956329z M49.0150452,63.4256134
			c0.0092735-0.0186615,0.0182152-0.0717583,0-0.0900879c0.0258713-0.052063-0.0772057-0.1834793-0.1300049-0.2099609
			l-0.1900024-0.1099854c0.1001358-0.058239,1.0801163-0.6281853,0.9799805-0.5699463v0.5899658
			C49.5747566,63.0948486,48.9147835,63.4848633,49.0150452,63.4256134z M67.3050232,63.3955841
			c-2.3300171,1.3499756-5.4400024,2.0999756-8.75,2.0999756c-3.2299805,0-6.2700195-0.7199707-8.5800171-2.0198975
			l0.1000366-0.0600586c0.0899658-0.0500488,0.1399536-0.1300049,0.1399536-0.2299805l-0.0100098-1.1999512
			c0-0.1000977-0.0499878-0.1801758-0.1299438-0.2301025c-1.5596771-0.8538628-1.6408577-1.0730629-1.8700562-0.9300537
			l-0.5099487,0.2900391c-0.6600342-1-1.1600342-2.0699463-1.3300171-2.8000488
			c0.2915192,0.8745613,1.9271011,2.3247337,3.1699829,3.0300293c5.0445213,2.9304352,13.0859146,2.8821182,18.0300293,0.0100098
			c1.3145828-0.7558899,2.6391373-1.8782539,3.3200073-3.2399902
			C70.8434372,58.2459755,71.3402863,61.0821381,67.3050232,63.3955841z"/><path fill="#979AAB" d="M51.2450256,60.3655548c3.9700317,2.3209572,10.5147972,2.3755875,14.6199951,0
			c4.2072754-2.4337502,4.1581955-6.4135056,0.0599976-8.7700195c-4.008194-2.3430138-10.5283012-2.3776054-14.6199951-0.0100098
			C46.9884682,54.0857773,47.2430191,58.0740433,51.2450256,60.3655548z M65.5950012,59.9055939
			c-3.9493446,2.2775764-10.2503014,2.2321968-14.0799561,0c-3.1179161-1.8066139-3.8767395-4.1737595,0.0599976-6.4699707
			c3.959137-2.2625847,10.2495728-2.227211,14.0899658,0.0200195
			C69.3544312,55.5810127,68.8952866,58.0071373,65.5950012,59.9055939z M51.5750427,52.0456085
			c3.9073181-2.2534103,10.2181511-2.2346115,14.0899658,0.0098877c1.5300293,0.880127,2.4799805,2.0100098,2.7299805,3.2301025
			c-0.5-0.8699951-1.3399658-1.6500244-2.4699707-2.2999268c-4.0128288-2.3256302-10.5110626-2.3672104-14.6199951-0.0100098
			c-1.1600342,0.6799316-2.0100098,1.4799805-2.539978,2.3498535C49.0350037,54.105545,50.0050354,52.9556427,51.5750427,52.0456085
			z"/><path fill="#FFF" d="M68.6645584,32.7163544l-0.0804825,4.9894638c0,0.3219376-0.2184372,0.643734-0.6323013,0.8852539
			L56.903614,45.0060959c-0.8622398,0.5174294-2.2418404,0.5174294-3.104084,0.0230141l-11.1286469-6.4380379
			c-0.4368744-0.2528877-0.6438026-0.5748253-0.6438026-0.8966217l0.0804825-4.9896049
			c0-0.3219337,0.2184372-0.6438713,0.6438026-0.8967628L53.79953,25.3930607c0.8507347-0.4944134,2.2418442-0.4944134,3.0925751,0
			l11.1286469,6.4265308C68.4576263,32.0724792,68.6645584,32.3944168,68.6645584,32.7163544z"/><path fill="#662DDC" d="M45.4396896 36.9132042c.3773613.2178688.667984.7409897.6668091 1.1548233-.0012283.4336166-.2938614.6199951-.6712227.4021263-.3773575-.2178688-.6850815-.7508621-.6838493-1.1844788C44.7525978 36.8718414 45.0623322 36.6953354 45.4396896 36.9132042zM47.9268456 38.3491631c.36026.2079964.6679802.7409935.6668091 1.1548233-.0012283.4336166-.3109627.6101227-.6712227.4021263-.3773613-.2178688-.6850815-.7508621-.6838531-1.1844788C47.2397537 38.3078003 47.5494843 38.1312943 47.9268456 38.3491631zM50.3969002 39.7752495c.3773575.2178688.6850815.7508659.6839066 1.1646957-.0012283.4336166-.3109627.6101227-.6883202.3922539-.3773613-.2178688-.667984-.7409897-.6667519-1.1746063C49.7269058 39.7437592 50.0195389 39.5573807 50.3969002 39.7752495z"/><path fill="#F9D893" d="M64.8748932 37.1310577c-.3773575.2178688-.667984.7409935-.6668091 1.1548271.0012283.4336128.2938614.6199951.6712265.4021263.3773575-.2178688.6850815-.7508659.6838531-1.1844788C65.5619888 37.0896988 65.2522583 36.9131927 64.8748932 37.1310577zM62.3877411 38.5670204c-.36026.2079964-.667984.7409897-.6668091 1.1548233.0012283.4336128.3109627.6101227.6712227.4021263.3773613-.2178688.6850815-.7508659.6838531-1.1844788C63.0748329 38.5256577 62.7650986 38.3491516 62.3877411 38.5670204zM59.9176865 39.9931068c-.3773613.2178688-.6850815.7508621-.6839104 1.1646957.0012321.4336166.3109627.6101227.688324.3922539s.6679802-.7409935.6667519-1.1746063C60.5876808 39.9616165 60.2950478 39.775238 59.9176865 39.9931068z"/><path fill="#FFF" d="M68.6645584,24.2848186l-0.0804825,4.9894619c0,0.3219357-0.2184372,0.6437321-0.6323013,0.8852558
			L56.903614,36.5745583c-0.8622398,0.5174294-2.2418404,0.5174294-3.104084,0.0230179l-11.1286469-6.4380398
			c-0.4368744-0.2528896-0.6438026-0.5748272-0.6438026-0.8966236l0.0804825-4.989603
			c0-0.3219376,0.2184372-0.6438732,0.6438026-0.8967648L53.79953,16.9615231c0.8507347-0.4944134,2.2418442-0.4944134,3.0925751,0
			l11.1286469,6.4265308C68.4576263,23.6409435,68.6645584,23.9628811,68.6645584,24.2848186z"/><path fill="#662DDC" d="M45.4396896 28.4816666c.3773613.2178688.667984.7409916.6668091 1.1548252-.0012283.4336147-.2938614.6199951-.6712227.4021263-.3773575-.2178688-.6850815-.7508659-.6838493-1.1844807C44.7525978 28.4403057 45.0623322 28.2637978 45.4396896 28.4816666zM47.9268456 29.9176254c.36026.2079964.6679802.7409916.6668091 1.1548252-.0012283.4336147-.3109627.6101227-.6712227.4021263-.3773613-.2178688-.6850815-.750864-.6838531-1.1844807C47.2397537 29.8762646 47.5494843 29.6997566 47.9268456 29.9176254zM50.3969002 31.3437119c.3773575.2178688.6850815.7508659.6839066 1.1646957-.0012283.4336166-.3109627.6101227-.6883202.3922577-.3773613-.2178688-.667984-.7409935-.6667519-1.1746082C49.7269058 31.3122234 50.0195389 31.125843 50.3969002 31.3437119z"/><path fill="#F9D893" d="M64.8748932 28.699522c-.3773575.2178688-.667984.7409916-.6668091 1.1548252.0012283.4336147.2938614.6199951.6712265.4021263.3773575-.2178688.6850815-.750864.6838531-1.1844788C65.5619888 28.6581612 65.2522583 28.4816532 64.8748932 28.699522zM62.3877411 30.1354809c-.36026.2079964-.667984.7409935-.6668091 1.1548252.0012283.4336147.3109627.6101227.6712227.4021263.3773613-.2178688.6850815-.750864.6838531-1.1844788C63.0748329 30.09412 62.7650986 29.9176121 62.3877411 30.1354809zM59.9176865 31.5615673c-.3773613.2178688-.6850815.750864-.6839104 1.1646976.0012321.4336166.3109627.6101227.688324.3922539s.6679802-.7409897.6667519-1.1746063C60.5876808 31.5300789 60.2950478 31.3436985 59.9176865 31.5615673z"/><path fill="#FFF" d="M68.6645584,15.8532801l-0.0804825,4.9894629c0,0.3219376-0.2184372,0.643734-0.6323013,0.8852558
			L56.903614,28.1430225c-0.8622398,0.5174274-2.2418404,0.5174274-3.104084,0.0230141l-11.1286469-6.4380379
			c-0.4368744-0.2528896-0.6438026-0.5748272-0.6438026-0.8966236l0.0804825-4.9896021
			c0-0.3219376,0.2184372-0.6438742,0.6438026-0.8967648L53.79953,8.5299854c0.8507347-0.4944134,2.2418442-0.4944134,3.0925751,0
			l11.1286469,6.4265308C68.4576263,15.2094069,68.6645584,15.5313435,68.6645584,15.8532801z"/><path fill="#662DDC" d="M45.4396896 20.0501289c.3773613.2178688.667984.7409916.6668091 1.1548252-.0012283.4336147-.2938614.6199951-.6712227.4021263-.3773575-.2178688-.6850815-.750864-.6838493-1.1844807C44.7525978 20.0087681 45.0623322 19.8322601 45.4396896 20.0501289zM47.9268456 21.4860878c.36026.2079964.6679802.7409916.6668091 1.1548252-.0012283.4336147-.3109627.6101227-.6712227.4021263-.3773613-.2178688-.6850815-.750864-.6838531-1.1844788C47.2397537 21.4447269 47.5494843 21.268219 47.9268456 21.4860878zM50.3969002 22.9121742c.3773575.2178688.6850815.7508659.6839066 1.1646976-.0012283.4336147-.3109627.6101227-.6883202.3922539-.3773613-.2178688-.667984-.7409916-.6667519-1.1746063C49.7269058 22.8806858 50.0195389 22.6943054 50.3969002 22.9121742z"/><path fill="#F9D893" d="M64.8748932 20.2679844c-.3773575.2178688-.667984.7409935-.6668091 1.1548252.0012283.4336147.2938614.6199951.6712265.4021263.3773575-.2178688.6850815-.750864.6838531-1.1844788C65.5619888 20.2266235 65.2522583 20.0501156 64.8748932 20.2679844zM62.3877411 21.7039452c-.36026.2079945-.667984.7409916-.6668091 1.1548233.0012283.4336147.3109627.6101227.6712227.4021263.3773613-.2178688.6850815-.750864.6838531-1.1844788C63.0748329 21.6625824 62.7650986 21.4860764 62.3877411 21.7039452zM59.9176865 23.1300316c-.3773613.2178688-.6850815.750864-.6839104 1.1646957.0012321.4336166.3109627.6101227.688324.3922539.3773613-.2178669.6679802-.7409916.6667519-1.1746063C60.5876808 23.0985432 60.2950478 22.9121628 59.9176865 23.1300316z"/><path fill="#D9DADF" d="M13.1402874,62.8721466c-0.1757813,0-0.3081055-0.1430664-0.3081055-0.3334961L12.728178,25.8316212
				c-0.0009766-0.1645508,0.1025391-0.34375,0.2460938-0.4257813l19.6767597-11.3603525
				c0.2324219-0.1313477,0.4887695,0.0239258,0.4887695,0.2739258l0.1044922,36.706543
				c0,0.1748047-0.1015625,0.3500977-0.2524414,0.4365234L13.2599163,62.8550568L13.1402874,62.8721466z M32.6676331,14.5625772
				L13.2096233,25.8159962l0.0947266,36.4672852L32.756012,51.0528107L32.6676331,14.5625772z"/><path fill="#4D4D56" d="M9.4502459 27.3693695c.1450539.0837479.2703676.3008747.2698956.4674206L9.7131786 30.292635c-.0004721.1666965-.1265736.227499-.2716284.1437511-.1450701-.0837555-.2704153-.2897301-.2699423-.4564285l.0069618-2.455843C9.1790419 27.3575687 9.3051748 27.285614 9.4502459 27.3693695zM9.4372978 31.9365101c.1450539.083746.2703991.2897205.269927.456419l-.0069628 2.4558411c-.0005035.1777-.126605.2385025-.2716589.1547546-.145071-.0837555-.2704163-.2897301-.2699127-.4674301l.0069628-2.4558411C9.1661253 31.9135551 9.2922277 31.8527527 9.4372978 31.9365101z"/><path fill="#FFF" d="M14.6631365,38.6130867l0.0338259,12.3847923c0,0.5491447,0.1942892,0.9293709,0.4984064,1.1067467
		l2.1965284,1.2756653c-0.0338249-0.0169106-0.0675983-0.0422821-0.092968-0.0676498
		c0.3125744,0.2534828,0.7856636,0.2534828,1.3178978-0.0506325l11.100771-6.412056
		c0.9461803-0.5492477,1.7234402-1.8839035,1.714983-2.9737358L31.398756,31.4913216
		c0-0.5576019-0.2112026-0.9546356-0.540638-1.115099c0.016861,0,0.0337753,0.0084553,0.0422306,0.0169125l-0.0675983-0.0338268
		l-1.8839035-1.0982895v-0.3547516c-0.0084553-1.4868698-0.5322323-2.5344219-1.377039-3.0160179l-0.1774273-0.1013737
		l-2.0106449-1.1742935c-0.8532619-0.4984074-2.0359612-0.4308605-3.353857,0.3210316l-0.1267414,0.0760021l-0.1266899,0.076107
		c-2.7030125,1.5837593-4.6887188,5.2585125-4.6887188,8.0932121v0.0252647l0.0084553,2.0276604l-0.7265205,0.4139481
		C15.4234838,36.1968498,14.6546803,37.5232544,14.6631365,38.6130867z"/><path fill="#FFF" d="M17.0877285,33.1809349v0.0252647l0.0084553,2.0276604l2.1965294,1.2756653v-2.0276566H19.284256
		v-0.0084572h0.0084572c-0.0283718-2.9190617,1.9929619-6.5476418,4.6802101-8.1100216
		c0.1000462-0.0600491,0.3534794-0.2121601,0.2534313-0.1521111c1.3094406-0.7518902,2.4921913-0.81954,3.3454533-0.3210297
		l-2.1880722-1.2756672c-0.8532619-0.4984074-2.0359612-0.4308605-3.353857,0.3210316l-0.1267414,0.0760021l-0.1266899,0.076107
		C19.0734348,26.6714821,17.0877285,30.3462353,17.0877285,33.1809349z"/><path fill="#FFF" d="M19.2888775,34.4789467l0.0057278,2.0204964l9.6560116-5.5749016l-0.0057297-2.0204945
		C28.9248562,21.8381271,19.2680492,27.1319065,19.2888775,34.4789467z"/><path fill="#D9DADF" d="M21.2019329,33.3836784l4.5957508-2.6442471l0.2957134-0.1689205l1.0221825-0.5997791V28.973814
		c-0.0084038-0.5829697-0.1182346-1.5713291-0.8785801-1.5713291c-1.2627277,0-2.8574905,1.5327797-3.6748886,2.7287102
		C21.8609066,31.1618347,21.3878174,32.3276711,21.2019329,33.3836784z"/><path fill="#FFF" d="M21.2019329,33.3836784l4.5957508-2.6442471l0.2957134-0.1689205v-0.9884605
		c-0.037487-2.6218262-1.9924736-1.7022839-3.5312862,0.5491447C21.8609066,31.1618347,21.3878174,32.3276711,21.2019329,33.3836784
		z"/><path fill="#D9DADF" d="M25.4358845,41.067482l0.8510933,4.0000114l-1.0118351,0.5862885l-3.243515,1.8723373l0.8226967-4.9645767
		c-0.6997604-0.0945396-1.1725769-0.7092247-1.1725769-1.7210007c-0.0094662-1.3712387,0.8321629-2.9787712,1.9385376-3.8865395
		c0.1702061-0.1418686,0.340414-0.2648087,0.5106201-0.3688126c1.3617153-0.7848358,2.4681473-0.1513329,2.4776134,1.3995171
		C26.6085186,39.0154152,26.1357021,40.1690636,25.4358845,41.067482z"/><path fill="#BCBCBE" d="M24.4241085,41.6632385l0.8510342,3.9905434l-3.243515,1.8723373l0.8226967-4.9645767
		c-0.6997604-0.0945396-1.1725769-0.7092247-1.1725769-1.7210007c-0.0094662-1.3712387,0.8321629-2.9787712,1.9385376-3.8865395
		c1.1253052-0.3877449,1.9669342,0.2648048,1.9763985,1.626461C25.5966835,39.6018219,25.1333332,40.7554665,24.4241085,41.6632385z
		"/><g><path fill="#FFF" d="M42.9478378,50.754837c0,1.1679382-0.4134102,1.9844093-1.0748367,2.3666573l-1.3951416,0.8164711
			l-0.0206909,0.0103455l-0.041317,0.0206871c-0.671772,0.3927193-1.6018448,0.33078-2.624958-0.2583618
			c-1.6639137-0.9610443-3.0590553-3.0279617-3.5241241-5.0123711l-5.5600071-3.2035675l-1.4261761,0.8266907l-2.9763622-1.7259178
			v-1.6535072l-1.1677494-0.671772v-2.5319214l1.4571476-0.8475037l10.5722485,6.0975494
			c0.1137276-0.0827599,0.2273941-0.1344795,0.3617477-0.1758614c-0.1240082,0.0310364-0.2377357,0.0827599-0.3410568,0.144825
			l1.4571457-0.8475037c0.671772-0.3823738,1.5915642-0.3307762,2.6250229,0.2687073
			C41.3046112,45.5566406,42.9581795,48.4089928,42.9478378,50.754837z"/><polygon fill="#FFF" points="28.702 45.495 27.281 46.321 27.281 44.668"/><path fill="#FFF" d="M34.1737938 48.1711922c.0206261.1758575.0516586.3411217.0929756.5270729l-6.9861832-4.0303841v1.6535072l-2.9763622-1.7259178v-1.6535072l-1.1677494-.671772v-2.5319214l11.1406403 6.4280739C34.0411072 46.8754387 34.0962563 47.9395332 34.1737938 48.1711922zM38.4419518 48.2436256c.1240158.031002.2480316.0826759.3823776.1550179.7854309.4547234 1.4365082 1.5501862 1.4468422 2.4699631 0 2.151783-2.9040146.6260262-2.9040146-1.6535301 0-.086998.0308418-.4132233.0826759-.4650574.0341339-.1706772.2379417-.4030495.2790337-.4030495C37.9148903 48.2022858 38.1629181 48.1609497 38.4419518 48.2436256"/><path fill="#D9DADF" d="M40.1678314,51.4163895c-0.4638748,1.3249016-2.8006897-0.2023849-2.8006897-2.2013969
			c0-0.0872345,0.0309258-0.4132347,0.082695-0.465004c0.0340652-0.1703262,0.2375908-0.4029388,0.2790527-0.4029388
			c0.1860123-0.144825,0.4340324-0.1860771,0.713089-0.1034431c-0.0103455,0.0103416-0.0206909,0.0310326-0.0206909,0.0517235
			c-0.2318459,0.2318459-0.0456467,2.1525574,1.3641701,2.9660149
			C39.9198151,51.3439789,40.0438232,51.3957024,40.1678314,51.4163895z"/><path fill="#FFF" d="M35.1658707 44.9883156c-.4029999.2273293-.713089.6302681-.8887558 1.1780281l-11.1406403-6.4280739 1.4571476-.8475037L35.1658707 44.9883156zM42.9478378 50.754837c0 1.1679382-.4134102 1.9844093-1.0748367 2.3666573l-1.4571495.8475037c.6614304-.3823738 1.0747757-1.2091904 1.0747757-2.3666573.0103416-2.3459663-1.6431618-5.2086639-3.6791077-6.3763504-1.0334587-.5994873-1.953186-.6512108-2.624958-.2687111l1.4571457-.8475037c.671772-.3823738 1.5915642-.3307762 2.6250229.2687073C41.3046112 45.5566406 42.9581795 48.4089928 42.9478378 50.754837z"/><path fill="#908FA1" d="M68.065033,21.9356251c0.4799805-0.2700195,0.75-0.6700439,0.75-1.0900879l0.0899658-4.9599619
					V15.855546c0-0.0300293,0-0.0599365-0.0100098-0.0899658c-0.0299683-0.3900146-0.2999878-0.75-0.7599487-1.0200195
					L57.0150452,8.3255167c-0.9000244-0.5200195-2.4400024-0.5200195-3.3300171,0l-11.0499878,6.4200439
					c-0.4200554,0.2427015-0.7600098,0.6219053-0.7600098,1.0999756l-0.0900269,4.9799814
					c0,0.4300537,0.2800293,0.8200684,0.7700195,1.1101074l1.0999756,0.6398926l0.0047607,0.0026855l-1.0253296,0.5957031
					c-0.4916992,0.2861328-0.762207,0.6787109-0.7617188,1.1054688c0,0.0042725,0.0019531,0.0083008,0.0020142,0.0124512
					l-0.0897217,4.9637451c0,0.4300537,0.2800293,0.8199463,0.7700195,1.1099854l1.1099854,0.6400146l0.0009155,0.0006104
					l-1.0314941,0.5993652c-0.4916992,0.2861328-0.762207,0.678709-0.7617188,1.1054668
					c0,0.0046387,0.0020752,0.0087891,0.0021362,0.0134277l-0.0898438,4.9611816
					c0,0.4299316,0.2800293,0.8299561,0.7700195,1.1099854l11.1300049,6.4300537
					c0.8981018,0.5257339,2.4172935,0.5436935,3.3399658-0.0100098l11.0400391-6.4200439
					c0.4799805-0.2700195,0.75-0.6700439,0.75-1.0899658l0.0899658-4.960083v-0.0299072
					c0-0.0026855-0.0028076-0.0042725-0.0029297-0.006958c-0.0029297-0.425415-0.2733154-0.8153057-0.7632446-1.0977764
					l-1.1071777-0.6391602l1.0333862-0.6062012c0.4799805-0.2700195,0.75-0.6699219,0.75-1.0899658
					c0.0018234-0.1011753,0.0959015-5.3194866,0.0899658-4.9899902c-0.0486984-0.1456947,0.0028534-0.6631107-0.7661743-1.1063232
					l-1.109314-0.6403809l0.0054932-0.0032959L68.065033,21.9356251z M68.3450012,20.8355274
					c0,0.25-0.1900024,0.5-0.5199585,0.6900635l-11.0400391,6.4200439c-0.3388062,0.2092285-0.796936,0.3188477-1.2653198,0.3293457
					v-4.5100098c0.5980835-0.0007324,1.1564941-0.1401367,1.5853271-0.3994141l11.039978-6.4199219
					c0.1000366-0.0600586,0.1900024-0.1201172,0.2700195-0.1800537L68.3450012,20.8355274z M42.8750305,15.1555948
					l11.039978-6.4199219c0.7838211-0.4539785,2.076786-0.4536152,2.8599854,0l11.1300049,6.4199219
					c0.5120621,0.3011179,0.5702286,0.6695957,0.5200195,0.7700195c0,0.2322054-0.2855072,0.4790049-0.5100098,0.6099863
					l-11.0499878,6.4200439c-0.7600098,0.4499512-2.1099854,0.4499512-2.8699951,0.0100098l-11.1199951-6.4300537
					C42.17173,16.1424789,42.1655693,15.5519047,42.8750305,15.1555948z M42.7950134,21.5255909
					c-0.3499756-0.2000732-0.5299683-0.4500732-0.5299683-0.7000732l0.0599976-4.0898438
					c0.0899658,0.0698242,0.1999512,0.1398926,0.3099976,0.2099609l11.1300049,6.4299316
					c0.3599854,0.2099609,0.7999878,0.3400879,1.2799683,0.3800049c0.0006714,0.0001221,0.0013428,0.0001221,0.0020142,0.0001221
					v4.5100098c-0.0006714-0.0001221-0.0013428,0-0.0020142-0.0001221
					c-0.4199829-0.0299072-0.8200073-0.1300049-1.1300049-0.3099365L42.7950134,21.5255909z M42.7950134,29.9556446
					c-0.3499756-0.2000732-0.5299683-0.4500732-0.5299683-0.6900635l0.0599976-4.0999756
					c0.0995331,0.0797253,0.28965,0.2031498,0.3108521,0.215332c0.1029778,0.0595417,11.2343102,6.4954834,11.1291504,6.4345703
					c0.35783,0.1953983,0.9784164,0.3525372,1.2799683,0.3701153v0.0100098c0.0006714,0,0.0013428,0,0.0020142,0.0001221v4.4998779
					c-0.0006714,0-0.0013428,0-0.0020142,0c-0.4199829-0.0300293-0.8200073-0.130127-1.1300049-0.3100586L42.7950134,29.9556446z
					 M53.9150085,44.815506l-11.1199951-6.4299316c-0.3499756-0.1999512-0.5299683-0.4399414-0.5299683-0.6899414
					l0.0599976-4.1000977c0.0899658,0.0800781,0.1999512,0.1500244,0.3099976,0.2199707
					c1.1389351,0.6579895-4.1226044-2.3817196,11.1300049,6.4300537c0.5180054,0.2593994,1.0673218,0.3699951,1.2799683,0.3699951
					v0.0100098c0.0006714,0,0.0013428,0,0.0020142,0.0001221v4.4998779c-0.0006714,0-0.0013428,0-0.0020142,0
					C54.6250305,45.0955353,54.2250061,44.9955597,53.9150085,44.815506z M68.3450012,37.7056427
					c0,0.6707916-0.4134293,0.494976-11.5599976,7.0998535c-0.3388062,0.2093506-0.796936,0.3188477-1.2653198,0.3294678v-4.4996338
					c0.5125046-0.0006714,1.0499001-0.1147842,1.4953613-0.3597412c0.0102539-0.005127,0.0268555-0.0164795,0.0410156-0.0255127
					c0.0140991-0.0078125,0.0333252-0.010498,0.0471191-0.0185547c1.1290207-0.6560326-4.0899391,2.3765221,11.0418091-6.4160156
					c0.0800171-0.0499268,0.1500244-0.0898438,0.210022-0.1398926c0.0200195-0.0100098,0.039978-0.0300293,0.0599976-0.0400391
					L68.3450012,37.7056427z M67.9117737,33.4029083c-15.1522408,8.7878532-9.9262123,5.7569122-11.0567627,6.4125977
					c-0.0233154,0.0175781-0.0435791,0.024292-0.0640869,0.0349121c-0.8748055,0.4602547-2.1682663,0.3360023-2.789978-0.0222168
					c-0.0006714-0.0003662-0.0014038-0.0004883-0.0020752-0.0009766c-0.1000252-0.0577927-8.3428879-4.8237228-11.1238403-6.4316406
					c-0.0200195-0.0200195-0.0499878-0.0300293-0.0700073-0.0400391c-0.5059547-0.253231-0.7156067-0.8859787,0.0667114-1.3408203
					l1.2676392-0.7365704l9.5456543,5.5174541c0.8508606,0.4914131,2.3802147,0.5656853,3.3399658-0.0100098l9.524292-5.5465069
					l1.3532104,0.781004C68.641655,32.4470253,68.5579147,33.026825,67.9117737,33.4029083z M68.3450012,29.2755909
					c0,0.25-0.1900024,0.4899902-0.5199585,0.6800537l-11.0400391,6.41992
					c-0.3388062,0.2092285-0.796936,0.3188477-1.2653198,0.3294678v-4.4996338
					c0.549366-0.000721,1.0476761-0.1171875,1.5470581-0.3912334c0.0108032-0.0059814,0.0257568-0.0080566,0.036438-0.0142822
					c3.6968498-2.1531715,10.9165268-6.3279247,11.2039185-6.5323486c0.0351563-0.0240479,0.0759277-0.0479736,0.1079102-0.0718994
					L68.3450012,29.2755909z M68.1250305,24.8155079c-0.1183319,0.1184502,0.5691223-0.305294-11.2700195,6.5700684
					c-0.0222168,0.0148926-0.0505981,0.0234375-0.0740356,0.0371094c-0.8295479,0.4299068-2.0881081,0.3735008-2.781311-0.0266113
					c-0.0074997-0.0043316-11.1848373-6.4654617-11.192627-6.4692383c-0.0726089-0.1000156-1.057003-0.6917133,0.0646973-1.34375
					l1.2662964-0.7358398l9.5469971,5.5183105c0.9248238,0.5343494,2.3955879,0.5357075,3.3399658-0.0100098l9.5300293-5.5400391
					h0.0087891l1.3386841,0.7729492C68.6654739,24.0291443,68.4632874,24.6451607,68.1250305,24.8155079z"/><polygon fill="#908FA1" points="25.847 15.379 20.01 18.749 20.012 19.562 25.85 16.192"/><path fill="#908FA1" d="M24.2293377 57.2576447l-2.3705444 1.3686523c-.0764771.0441895-.1400146.1540527-.1397705.2419434l.0077515 2.0620117c.0002441.0878906.0641479.1243896.140625.0802002l2.3705444-1.3685303c.0764771-.0441895.1400146-.1542969.1397705-.2421875l-.0077515-2.0620117C24.3697186 57.2498322 24.3058147 57.2134552 24.2293377 57.2576447zM26.235014 27.1656055c-1.4124088 0-3.0448017 1.658535-3.8699951 2.8299561-.7149792 1.0659237-1.1801205 2.2102337-1.3800049 3.2600079-.0946655.2840004.1692543.4371338.3300171.3299561.1005707-.0579262 6.3166084-3.6383667 5.9199829-3.4099102.0700073-.0400391.1199951-.1201172.1199951-.1999512v-.3901367C27.3212795 29.4705696 27.5989494 27.1656055 26.235014 27.1656055zM22.7550335 30.2655811c.5050373-.7156849 1.6063595-2.039917 2.4199829-2.039917.7190571 0 .6428967 1.1934223.6799927 1.6699219v.5300293l-4.3099976 2.4899883C21.7010689 32.2601242 22.1292076 31.1825104 22.7550335 30.2655811zM26.8750286 29.8355274l-.5499878.3200684c-.0547276-.276123.2159309-2.0011215-.8300171-2.3500977.2600098-.1098633.5100098-.1699219.7399902-.1699219C27.0643368 27.6355762 26.8531303 29.4340382 26.8750286 29.8355274zM40.2550354 51.775589c.1499634-.1900635.25-.4700928.25-.9100342-.0100098-1-.7000122-2.1699219-1.5700073-2.6799316-.1600342-.0800781-.2999878-.1400146-.4299927-.1700439-.7169037-.2107849-1.3699951.2571526-1.3699951 1.2000732 0 .8281441.3749352 1.6348877.8999634 2.1599121l.1799927.1799316c.5721664.546299 1.403595.8646088 2.0400391.2301025C40.2550354 51.7855988 40.2550354 51.7855988 40.2550354 51.775589zM40.0350037 50.8655548c0 .0900879-.0100098.1700439-.0199585.25-1.0222435-.5111198-1.5338097-1.9261551-1.4500122-2.5799561.039978.0198975.0899658.0499268.1399536.0699463C39.4250183 49.025589 40.0249939 50.0355988 40.0350037 50.8655548zM38.5750427 51.2455597c-.5200195-.4499512-.9700317-1.1999512-.9700317-2.0299072 0-.8157539.4358482-.6696968.5100098-.7700195-.1741905 1.1598358.8144836 2.8011627 1.710022 3.0999756C39.5104599 51.8589134 38.9090576 51.5377617 38.5750427 51.2455597z"/><path fill="#908FA1" d="M39.3850403,44.1756134c-1.0599976-0.6201172-2.0800171-0.7099609-2.8600464-0.2700195
					l-1.1699829,0.6799316v-0.1098633l-0.0999756-33.6601563c0-1.0276146-0.5531082-1.5941057-0.8699951-1.6999512
					l-2.7100239-1.5799561c-0.5100098-0.2900391-1.1699829-0.2399902-1.8599854,0.1600342L10.1449871,19.0554981
					C8.8379383,19.7976398,7.774992,21.6113834,7.774992,23.145586l0.1199951,41.2600098
					c0,0.7700195,0.2800293,1.3599854,0.7800293,1.6599121l2.8099976,1.630127
					c0.0200195,0.0100098,0.039978,0.0200195,0.0599976,0.0300293c0.1900024,0.1098633,0.4099731,0.1599121,0.6599731,0.1599121
					c0.3500366,0,0.7300415-0.1199951,1.1200562-0.3399658l19.6799946-11.3599854
					c1.3099976-0.7600098,2.3800049-2.6000977,2.3699951-4.1101074v-1.4499512
					c-0.1900024-0.3299561-0.3400269-0.6699219-0.4800415-1.0100098l0.0100098,1.5300293v0.9299316
					c0,1.3601074-0.9599609,3.0200195-2.1399536,3.7000732L13.0849895,67.1355743
					c-0.3099976,0.1799316-0.6199951,0.2700195-0.8800049,0.2700195c-0.2299805,0-0.4199829-0.0600586-0.5699463-0.1799316
					c-0.0500488-0.0400391-0.1000366-0.0800781-0.1400146-0.130127c-0.2000122-0.2399902-0.3099976-0.5999756-0.3099976-1.0599365
					l-0.1199951-41.2600098c0-1.3672199,0.959939-2.9940681,2.1300049-3.6800537L32.8750305,9.735673
					c1.1263542-0.6341791,1.9099731-0.1496181,1.9099731,1.079834l0.1000366,33.630127v0.1098633l-3.2100239-1.8598633v-0.1000977
					l-0.039978-11.0999737c0-0.5699463-0.2000122-1.0098877-0.5400391-1.2399902v-0.0100098
					c-0.0501099-0.1002216-1.8098545-1.0627823-1.9099731-1.1199951v-0.2199707
					c-0.0100098-1.8599854-0.6799927-3.0700684-1.8800049-3.4399414c-1.2693024-0.4701138-2.4497299-2.4127388-5.4000244-0.7299805
					c-0.0932064,0.1000347-5.0499878,2.9806404-5.0499878,8.4699688v1.8898926l-0.5999756,0.3500977
					c-1.0200195,0.5799561-1.8400269,2.0100098-1.8300171,3.1699219l0.0299683,12.3900146
					c0,0.6099854,0.2200317,1.0699463,0.6200562,1.3099365l2.1900024,1.2700195c0.0099487,0,0.0099487,0,0.0099487,0h0.0100098
					c0.0100098,0.0100098,0.0200195,0.0200195,0.0400391,0.0200195l0.0099487,0.0100098
					c0.4356079,0.2325134,0.9697857,0.099823,1.4000244-0.1499023l11.0999756-6.4101563
					c0.1400146-0.079834,0.2700195-0.1699219,0.4000244-0.289917c0.0300293-0.0200195,0.0499878-0.039917,0.0800171-0.0699463
					l3.829958,2.2099609c0.0400391,0.0200195,0.0800171,0.0300293,0.1200562,0.0300293c0.0099487,0,0.0099487,0,0.0099487,0
					c0.1300049,0,0.2400513-0.1101074,0.2400513-0.2399902c0-0.0400391-0.0100098-0.0800781-0.0300293-0.1201172
					c-0.0100098-0.0499268-0.0200195-0.0898438-0.0300293-0.1398926c-0.0199585-0.1000977-0.039978-0.2099609-0.0599976-0.3400879
					c-0.0599976-0.1899414-0.1099854-1.2099609,0.1100464-1.8499756v-0.0198975
					c0.1534195-0.4604683,0.4153252-0.7836266,0.6199951-0.920166c0.0799561,0.0200195,0.1599731,0,0.2299805-0.039917v-0.1199951
					c0.1400146-0.0700684,0.2800293-0.1300049,0.4400024-0.1500244c0.539978-0.1199951,1.210022,0.0400391,1.9000244,0.4400635
					c1.9699707,1.1298828,3.5700073,3.8999023,3.5599976,6.1699219c0,0.7600098-0.2000122,1.4000244-0.5500488,1.8100586
					l-0.0199585,0.0200195c-0.1099854,0.1298828-0.2399902,0.2399902-0.3800049,0.3199463l-0.0100098,0.0100098
					c-0.1099854,0.0699463-0.1400146,0.210083-0.0800171,0.3199463c0.0500488,0.0700684,0.1300049,0.1201172,0.210022,0.1201172
					c0.039978,0,0.0800171-0.0200195,0.1199951-0.0400391l1.4500122-0.8400879
					c0.7700195-0.4399414,1.1900024-1.3598633,1.1900024-2.5699463
					C43.1950378,48.3455353,41.4950256,45.3955841,39.3850403,44.1756134z M8.9150066,65.6555939
					c-0.3499756-0.2099609-0.539978-0.6500244-0.539978-1.2600098L8.2550335,23.1355762
					c0-0.5,0.1399536-1.0600586,0.3599854-1.5800781c0.0007324-0.0014648,0.0014038-0.0029297,0.0021362-0.0043945
					l2.3765869,1.4682617c-0.2589722,0.5788574-0.3987427,1.1875-0.3987427,1.7562256l0.1199951,41.2600098
					c0,0.1400146,0.0100098,0.2698975,0.0300293,0.4000244c0.0100098,0.1099854,0.0299683,0.2199707,0.0599976,0.3199463
					L8.9150066,65.6555939z M32.9950256,9.1555948c-0.0200195,0-0.0400391,0.0100098-0.0599976,0.0200195
					c-0.1000366,0.0400391-0.2000122,0.0899658-0.2999878,0.1499023L12.9549847,20.6856251
					c-0.7765903,0.434557-1.3252974,1.1424026-1.7565918,1.9046631l-2.3726196-1.4659424
					c0.3898315-0.6993408,0.949585-1.309082,1.5592651-1.6586914L30.0550213,8.105546
					c0.4168453-0.2474194,0.9612122-0.3994312,1.3800049-0.1599121l1.8900166,1.0999756
					C33.2149963,9.0655069,33.105011,9.105546,32.9950256,9.1555948z M29.9649944,30.1255665
					c-0.1515789,0.0505772-0.3269253,0.1302452-0.4099731,0.1799316l-0.3699951,0.210083v-0.8399658L29.9649944,30.1255665z
					 M28.7049847,28.8655567v0.5300293l0.0100098,1.3900146l-9.1900024,5.3099346
					c0.0116348-1.9411049-0.0136909-1.8988686,0.0200195-2c0-3.1229382,3.3706875-8.2800274,6.9000244-8.2800274
					c0.0599976,0,0.1300049,0,0.1900024,0.0100098c0.289978,0.0400391,0.5599976,0.130127,0.8099976,0.2700195
					c0.0099487,0,0.0099487,0,0.0099487,0c0.0400391,0.0200195,0.0900269,0.0300293,0.1400146,0.0200195
					C28.3150311,26.5655079,28.6950359,27.5055714,28.7049847,28.8655567z M22.1449871,25.145586
					c2.5201702-1.4399509,3.4312878,0.011425,4.0100098,0.1899414c-2.6103897,0.1823006-6.4525566,3.4605408-7.0700073,8.4001446
					c0,0.0198975,0,0.0499268-0.0099487,0.0698242c0.0418262,0.0420837-0.0366821-0.4399109-0.0200195,2.2900391
					l-1.4899902-0.869873l-0.2300415-0.130127V34.815506l-0.0099487-1.6298828
					C17.3250408,27.9754581,22.0514717,25.245697,22.1449871,25.145586z M15.3150311,51.9055939
					c-0.25-0.1500244-0.3900146-0.4699707-0.3900146-0.9100342l-0.0300293-12.3800049c0-1,0.7300415-2.2600098,1.6000366-2.7600098
					l0.6000366-0.3499756l1.7199707,1c-0.3840237,0.2692261-0.4821758,0.1921997-1.0800171,0.7900391
					c-0.7140427,0.7572289-1.1199951,1.7846107-1.1199951,2.5999756l0.039978,12.3800049
					c0,0.1500244,0.0100098,0.289917,0.0400391,0.4200439L15.3150311,51.9055939z M29.8050213,46.5055695
					c-0.0700073,0.0499268-0.1400146,0.0999756-0.210022,0.1400146l-11.0999756,6.4099121
					c-0.5833759,0.3300858-1.007122,0.1658134-1.0599976,0.0600586c-0.210022-0.1499023-0.3099976-0.4499512-0.3099976-0.8399658
					l-0.0400391-12.3800049c0-0.7715721,0.4383621-1.6899681,0.9800415-2.2600098
					c0.3502865-0.4282303,1.914135-1.2393303,11.7199707-6.9099102c0.7828846-0.4571476,1.3800049-0.1456127,1.3800049,0.7698975
					l0.0300293,10.8199444v0.1101074l-4.710022-2.7199707c0.1892853-0.5678558,0.3599854-1.036232,0.3599854-1.7199707
					c-0.0100098-1.2000732-0.6400146-1.9700928-1.6099854-1.9700928c-1.8387451,0-3.8051472,2.6985703-3.789978,4.8199463
					c0,0.9899902,0.4299927,1.7000732,1.1399536,1.9100342l-0.789978,4.7401123
					c-0.0100098,0.0898438,0.0300293,0.1799316,0.0999756,0.2299805c0.0400391,0.0299072,0.0900269,0.0499268,0.1400146,0.0499268
					c0.0400391,0,0.0800171-0.0100098,0.1099854-0.039917c0.1006088-0.0578613,3.6882362-2.1212425,3.460022-1.9899902
					l0.0999756-0.0600586l1.460022,0.8499756c0.0700073,0.039917,0.1600342,0.039917,0.2299805,0l1.3099976-0.7600098
					l1.1800537,0.6800537C29.8550091,46.4656525,29.8349895,46.485672,29.8050213,46.5055695z M24.1850262,44.7956085
					l0.7600098,0.4400635c0.0200367,0.1001587,0.0800343,0.4000854,0.0599976,0.2999268l-2.6600342,1.539917l0.7399902-4.4599609
					v-0.0200195c0-0.0300293,0-0.0499268-0.0099487-0.0799561l0.9899902,0.5599365v1.5200195
					C24.0650311,44.6756134,24.1150188,44.7555695,24.1850262,44.7956085z M23.0150433,39.5355988
					c-0.0700073,0.039917-0.1100464,0.1199951-0.1100464,0.2000732v2.5299072c0,0.0200195,0,0.0499268,0.0200195,0.0699463
					c-0.0100098,0-0.0300293-0.0100098-0.039978-0.0100098c-0.0300293,0-0.0500488-0.0100098-0.0800171-0.0200195
					c-0.5599976-0.1098633-0.8900146-0.6599121-0.8900146-1.4699707c0-1.3385811,0.822134-2.8257103,1.8200073-3.6699219h0.0100098
					c0.9400024-0.3100586,1.6099854,0.2700195,1.6199951,1.4199219c0,0.1622391-0.0341644,0.4325256-0.039978,0.4500732
					l-0.6100464-0.3499756c-0.0799561-0.0400391-0.1699829-0.0400391-0.2399902,0L23.0150433,39.5355988z M24.5450115,36.6455841
					c0.2399902-0.1099854,0.4799805-0.1599121,0.6900024-0.1599121c0.7000122,0,1.1300049,0.5698242,1.1400146,1.5
					c0,0.6808319-0.1838264,1.1293602-0.2999878,1.4799805l-0.3099976-0.1700439
					c0.01968-0.0593987,0.0699463-0.4210892,0.0699463-0.7200928C25.8250408,37.525589,25.3349895,36.7855988,24.5450115,36.6455841
					z M27.5150433,45.9055939v-0.8300781l0.6299438,0.3601074l0.0900269,0.0599365L27.5150433,45.9055939z M33.9250183,48.1155548
					c0,0.0300293,0,0.0600586,0.0100098,0.0800781s0.0100098,0.0300293,0.0100098,0.0400391l-3.2800312-1.8901367
					l-0.4199829-0.2399902l-1.4100342-0.8099365l-0.2099609-0.1199951l-1.2300415-0.7099609
					c-0.0299683-0.0200195-0.0699463-0.0300293-0.1099854-0.0300293c-0.0499878,0-0.0899658,0.0100098-0.1199951,0.0300293
					c-0.0800171,0.039917-0.1199951,0.119873-0.1199951,0.1999512v1.25c-0.2556973-0.1491547,0.9259701,0.5408478-2.5-1.4599609
					v-1.0900879v-0.4199219c0-0.0900879-0.0499878-0.1700439-0.1199951-0.2099609l-0.0200195-0.0100098l-1.0299683-0.5900879
					v-1.9799805l0.0899658,0.0500488c1.7334404,0.9980087,10.6301441,6.1377563,10.5300312,6.0799561
					C33.8349915,46.9656525,33.855011,47.8054962,33.9250183,48.1155548z M34.6549988,45.0755157
					c-0.2000122,0.2000732-0.3699951,0.4500732-0.5,0.75c-3.9589176-2.2849846-10.5017719-6.0642357-10.4599628-6.039917
					l-0.0900269-0.0499268l0.9899902-0.5700684c17.6653461,10.1711693-6.8446636-3.9460831,10.1300068,5.8399658
					C34.7049866,45.025589,34.6750183,45.0456085,34.6549988,45.0755157z M41.7550354,52.9156036l-0.3099976,0.1799316
					c0.0199585-0.0400391,0.039978-0.0899658,0.0499878-0.1398926c0.1599731-0.3901367,0.2299805-0.8500977,0.2299805-1.3500977
					c0.0100098-2.4199219-1.6900024-5.3798828-3.789978-6.5799561c-0.4700317-0.2700195-0.9100342-0.4400635-1.3400269-0.5100098
					c-0.0499878-0.0100098-0.0899658-0.0200195-0.1400146-0.0200195l0.3100586-0.1800537
					c0.6199951-0.3598633,1.4699707-0.2600098,2.3899536,0.2700195c1.9700317,1.1401367,3.5700073,3.9100342,3.5599976,6.1700439
					C42.7149963,51.7956085,42.3750305,52.5554962,41.7550354,52.9156036z"/><path d="M71.4450378 55.9556427c0-2.0500488-1.3500366-3.960083-3.8000488-5.380127-2.4199829-1.4099121-5.6199951-2.1799316-9.0299683-2.1799316-3.3900146 0-6.5900269.7700195-9 2.1599121-2.5200195 1.4500732-3.9000244 3.3901367-3.8900146 5.4700928l.0100098 1.8699951c0 1.2199707.5 2.4199219 1.4400024 3.4799805l-.6199951.3601074-.7299805-.420166c-.0900269-.0599365-.210022-.0599365-.3000488 0l-9.75 5.5700684c-.5099487.3000488-.789978.7199707-.7799683 1.1699219v2.2700195c0 .4500732.2799683.8601074.789978 1.1601563.9394341.5425339 2.4593124.5301666 3.3800049-.0100098l9.7299805-5.5700684c.0900269-.0500488.1500244-.1500244.1500244-.2600098V64.065506l.5900269-.3498535v.0599365c0 .1099854.0599976.210083.1599731.2600098 2.3699951 1.3099365 5.4899902 2.0299072 8.7600098 2.0299072 3.4099731 0 6.6199951-.7698975 9.0299683-2.1699219 2.5-1.4399414 3.8699951-3.3699951 3.8699951-5.4499512L71.4450378 55.9556427zM67.2850037 63.3655548c-2.3300171 1.3500977-5.4299927 2.0900879-8.7299805 2.0900879-3.1000366 0-6.0499878-.6600342-8.3099976-1.8601074v-.4099121c0-.1101074-.0599976-.2099609-.1500244-.2600098-.0999756-.0500488-.2099609-.0500488-.3099976 0l-1.1900024.7099609c-.0899658.0500488-.1499634.1500244-.1499634.2600098l-.0100098 1.5700684-9.5800171 5.4899902c-.7398872.4315338-1.9939499.4525681-2.7700195 0-.3099976-.1800537-.4899902-.4100342-.4899902-.630127l.0100098-2.2199707v-.0500488c-.0100098-.2299805.1600342-.4599609.4700317-.6499023l9.5999756-5.4799805.7299805.4199219c.0900269.0500488.210022.0500488.2999878 0l1.1000366-.6298828c.0800171-.0500488.1400146-.130127.1499634-.2200928.0100098-.0999756-.0199585-.1900635-.0799561-.2598877-1-1.0100098-1.5300293-2.170166-1.5400391-3.3400879l-.0099487-1.8699951c0-1.8499756 1.2699585-3.6099854 3.5899658-4.9500732 2.3300171-1.3398438 5.4100342-2.0699463 8.7000122-2.0699463 3.2999878 0 6.4000244.7399902 8.7199707 2.0899658 2.2600098 1.3100586 3.5 3.0400391 3.5 4.8601074l.0200195 2.5C70.855011 60.2956085 69.5849915 62.0456085 67.2850037 63.3655548zM42.4055481 31.4778614c-.4911499.3239746-.7705078.7512188-.7705078 1.2177715v.0004883l-.0001221.0007324-.0805664 4.9975586c0 .5650177.3927193 1.0238647.8798828 1.3056641l11.1298828 6.4389648c.484375.277832 1.1123047.4306641 1.7680664.4306641.5142822 0 1.0083008-.0944824 1.4298096-.267334.135498-.0546875.2643433-.1164551.3829956-.1867676l3.7373047-2.1733398 7.307312-4.2426758c.5512695-.3212891.8671875-.7929688.8671875-1.2861328l.0805664-4.9970703c0-.3029785-.1207886-.5843506-.3265381-.8352032-.1430054-.1761475-.3214111-.3398438-.5557861-.4755859l-.75-.4399414.6900024-.4001465c.5499878-.3199463.8599854-.789917.8599854-1.2799072l.0800171-5c0-.5200195-.3099976-.9801025-.8800049-1.3099365l-.7600098-.4400635.7000122-.4000244c.5499878-.3200684.8599854-.7900391.8599854-1.2800293l.0800171-5.000001c0-.3000488-.1100464-.869873-.8800049-1.3099365L57.1250305 8.1255655c-.960022-.5700684-2.6000366-.5600586-3.5599976 0l-11.0599976 6.4100342c-.5599976.3399658-.8699951.7999268-.8699951 1.2999268l-.0800171 5.000001c0 .2900391.1099854.8601074.8800049 1.3000488l.75.4299316v.0100098l-.6799927.3901367c-.5599976.3398438-.8699951.7999268-.8699951 1.2999268l-.0800171 5c0 .5100098.3099976.9700928.8800049 1.2999268l.7584839.439209-.684082.3972168C42.4703064 31.425127 42.4421692 31.4534473 42.4055481 31.4778614zM66.5520935 31.5172901l1.2317505.7113018c.2592773.1499023.4082031.328125.4082031.4799805l-.0805664 4.9970703c0 .1533203-.1489258.331543-.3969727.4765625l-11.0541992 6.418457c-.4649048.2786865-1.203064.3547363-1.8448486.2558594-.2903442-.0456543-.5657959-.1164551-.7804565-.2409668l-4.2275391-2.4423828-6.8995972-3.9914551c-.2592773-.1499023-.4082031-.3276367-.4082031-.4794922.0017242-.1011772.0909538-5.3260841.0853271-4.996582 0-.1435547.1437988-.3220215.3743896-.4686279.010437-.0064697.0182495-.0137939.0290527-.0201416l1.1514282-.6684551 9.4251709 5.4571514c.4799805.2800293 1.1099854.4300537 1.7699585.4300537.6700439 0 1.3200073-.1600342 1.8099976-.4499512L66.5520935 31.5172901zM42.9049988 21.3155079c-.2600098-.1499023-.4099731-.3199463-.4099731-.4799805l.0899658-4.9899912c0-.1599121.1500244-.3399658.4000244-.4899902l11.0499878-6.4199219c.3400269-.1900635.8099976-.3000488 1.3099976-.3000488s.9700317.1099854 1.3099976.3000488l11.1300049 6.4299316c.2600098.1500244.4100342.3300781.4100342.4799805l-.0800171 5.000001c0 .1500244-.1500244.3300781-.4000244.4699707-.1009827.058672-11.7987175 6.8562145-11.0499878 6.420166-.6799927.4099121-1.9400024.4099121-2.6300049.0198975C45.0990868 22.5914459 52.1200676 26.649416 42.9049988 21.3155079zM42.4950256 29.2655811l.0899658-4.9899902c0-.1600342.1500244-.3399658.4000244-.4899902l1.1500244-.6700439c.1029434.0596008 9.5352402 5.5207291 9.4299927 5.4599609.4799805.2800293 1.1099854.4300537 1.7699585.4300537.6700439 0 1.3200073-.1600342 1.8099976-.4500732 6.2987022-3.6604214 3.4494591-2.0051327 9.4100342-5.4699707l1.2299805.710083c.2600098.1500244.4100342.3299561.4100342.4799805l-.0800171 5c0 .1500244-.1500244.3299561-.4000244.4799805-13.1900024 7.6514416-10.5907745 6.1436443-11.0499878 6.4100323-.6799927.4099121-1.9400024.4199219-2.6300049.0200195-1.0122681-.5858879-8.3474846-4.8300819-11.1300049-6.4400616C42.644989 29.605547 42.4950256 29.4256153 42.4950256 29.2655811zM37.6250305 53.9955597c.9119453.5272026 2.0227089.7861404 2.9400024.2700195 0 0 .0700073-.039917.0799561-.039917l1.3900146-.8200684c.7999878-.4599609 1.2399902-1.4000244 1.2399902-2.6500244.0100098-2.4400635-1.7099609-5.4300537-3.8399658-6.6600342-1.0900269-.6398926-2.1500244-.7299805-2.960022-.2700195l-.8800049.5100098-.0999756-33.5300293c-.0100098-.8898926-.3599854-1.579834-.9400024-1.869873-.0200195-.0100098-.039978-.0200195-.0499878-.0300293l-2.7100239-1.5700684c-.5800171-.3399658-1.3400269-.289917-2.0999756.1501465L10.024992 18.8455372c-1.3899536.8000488-2.4799805 2.6900635-2.4799805 4.3000488l.1199951 41.2600098c0 .8599854.3200073 1.5200195.8900146 1.8599854l2.8200073 1.6400146c.0100098.0100098.0199585.0100098.039978.0200195.2299805.1298828.5.1899414.7800293.1899414.3999634 0 .8200073-.1199951 1.25-.3699951l19.6799946-11.3599854c1.3699951-.7800293 2.4400024-2.6199951 2.4899902-4.1999512C36.1950378 52.9356232 36.894989 53.5755157 37.6250305 53.9955597zM34.6750183 52.0755157c0 1.2600098-.9299927 2.8601074-2.0200195 3.4899902L12.9649944 66.9256134c-.2699585.1599121-.539978.25-.7699585.25-.1300049 0-.25-.0300293-.4299927-.1500244-.0500488-.0300293-.1000366-.0599365-.1500244-.0699463l-2.5800171-1.5100098c-.2799683-.1600342-.4299927-.5300293-.4299927-1.0500488L8.485014 23.1355762c0-1.2700195.9099731-2.8300781 2.0100098-3.4699707L30.1750164 8.3054972c.4500122-.2598877.8599854-.3198242 1.1400146-.1599121l2.7299824 1.5900879c.0200195.0098877.039978.0198975.0700073.0299072.2700195.1400146.4299927.5300293.4400024 1.0499268l.0999756 33.5-2.7500019-1.5898438-.0299683-11.2301006c0-.6700439-.25-1.1900635-.6799927-1.4699707-.0300293-.0300293-.0700073-.0499268-.1199951-.0699463l-.0100098-.0100098-1.6400146-.9599609v-.0800781c-.0100098-1.6199951-.5900269-2.8400879-1.6199951-3.4299316l-2.1799927-1.2700195c-1.0300293-.6000977-2.4000244-.4899902-3.8400269.3199463l-.25.1500244c-2.7600098 1.6199951-4.9199829 5.3599854-4.9199829 8.5300274l.0100098 1.75-.4899902.2800293c-1.1000366.6398926-1.9500122 2.119873-1.9400024 3.3798828l.0299683 12.3800049c0 .6900635.2700195 1.25.7299805 1.5200195l2.2000122 1.2700195c.0100098.0100098.0200195.0100098.0200195.0198975.0100098 0 .0200195.0100098.0299683.0100098.1900024.1000977.4100342.1501465.6400146.1501465.3200073 0 .6600342-.1000977 1.0100098-.2900391l11.0999756-6.4200439c.1700439-.0999756.3400269-.2299805.5-.3699951l3.5200214 2.0300293c.1471176.559021.5626717 1.6527023.7000122 1.7900391C34.6750183 50.8063393 34.6750183 52.1762123 34.6750183 52.0755157zM22.8150311 42.3255157c0 .1585236.1500797.2180977.2699585.2900391l.8900146.5200195v1.4599609c0 .1201172.0599976.2299805.1600342.2900391.1014023.0585251 3.1869602 1.8391304 2.9799805 1.7199707.0999756.0600586.2299805.0600586.3300171 0l1.2599487-.7299805.8700562.5c-.0300293.0200195-.0599976.0400391-.0900269.0600586L18.3850384 52.855545c-.2700195.1500244-.5300293.1999512-.6900024.1400146-.0300293-.0198975-.0599976-.039917-.1000366-.0499268-.0499878-.0400391-.0999756-.0700684-.1599731-.0900879l-2-1.1599121c-.1699829-.1000977-.2700195-.3500977-.2700195-.7000732L15.1350384 38.605545c-.0100098-.9099121.6699829-2.0799561 1.4699707-2.5500488l.7299805-.4099121c.1400146-.0900879.2300415-.2399902.2300415-.4099121v-2.0500488c0-2.8000469 1.9899902-6.2499981 4.4500122-7.6900616l.25-.1500244c1.0999756-.6298828 2.1499634-.75 2.8799438-.3199463l2.1900024 1.2799072c.7300415.4101563 1.1300049 1.3400879 1.1400146 2.6000977v.3599854c0 .1600342.0900269.3199463.2399902.4000244l1.8500366 1.0799561c.0199585.0200195.0499878.0400391.0899658.0599365.1700439.0800781.2700195.3400879.2700195.6900635l.0299683 10.6800518c-10.6617622-6.1270027-2.6501732-1.525959-6.1999512-3.5700684-.1000366-.0599365-.2300415-.0599365-.3300171 0l-1.460022.8500977c-.0999756.0599365-.1599731.1699219-.1599731.2800293v2.5698242C22.8050213 42.315506 22.8050213 42.315506 22.8150311 42.3255157zM34.5849915 48.6255646c-.0099487-.0400391-.0299683-.0799561-.0499878-.1099854-.0100098-.0100098-.0199585-.0299072-.0299683-.039917-.0100098-.0200195-.0300293-.0300293-.0500488-.0400391 0 0-.0099487-.0200195-.0199585-.0200195l-.5100098-.3000488c-5.484314-3.1584282-5.0690117-2.9499512-5.2200336-2.9499512-.0299683 0-.0599976 0-.0799561.0100098-.0300293.0100098-.0499878.0100098-.0800171.0300293-.1001015.0583-.9449711.5475502-1.2600098.7299805l-.2399902-.1400146-2.4099731-1.3900146v-1.4599609c0-.1201172-.0599976-.2299805-.1700439-.2900391l-1-.5800781v-2.1499023c.1000099-.0575294 1.2300148-.7075539 1.1300049-.6500244.103054.0594177 10.1652546 5.8606834 10.0599995 5.7999268.187336.0683861.4217606.3487167.7000122.1900635 0-.0100098.0100098-.0100098.0100098-.0100098.0309563-.0257607 1.4747467-.8803444 1.4400024-.8599854.5999756-.3400879 1.4199829-.2399902 2.2999878.2700195 1.9500122 1.1300049 3.5200195 3.8599854 3.5100098 6.0899658 0 1-.3200073 1.7399902-.9100342 2.0799561-.1001587.058815-1.4799957.8690605-1.3799438.8100586 0 0-.0700073.0300293-.0800171.0400391-.5800171.3399658-1.4100342.2399902-2.2900391-.2600098C36.3296928 52.5109634 34.9061432 50.2313423 34.5849915 48.6255646z"/></g></svg>