<?xml version="1.0" standalone="no"?>
<!DOCTYPE svg PUBLIC "-//W3C//DTD SVG 20010904//EN"
 "http://www.w3.org/TR/2001/REC-SVG-20010904/DTD/svg10.dtd">
<svg version="1.0" xmlns="http://www.w3.org/2000/svg"
 width="360.000000pt" height="360.000000pt" viewBox="0 0 360.000000 360.000000"
 preserveAspectRatio="xMidYMid meet">

<g transform="translate(0.000000,360.000000) scale(0.100000,-0.100000)"
fill="#000000" stroke="none">
<path d="M1595 3439 c-96 -12 -294 -62 -386 -98 -781 -301 -1214 -1136 -1008
-1943 24 -95 86 -268 102 -283 7 -7 8 -5 4 6 -120 346 -109 742 30 1081 141
343 405 626 728 784 116 56 258 108 263 96 2 -7 -167 -645 -412 -1558 -64
-236 -116 -435 -116 -441 0 -8 256 -83 299 -87 8 -1 19 23 30 64 10 36 55 207
101 380 46 173 85 317 86 319 3 4 71 -14 538 -140 181 -48 331 -90 333 -93 3
-3 -11 -65 -30 -138 -248 -916 -327 -1222 -318 -1227 6 -4 52 -3 103 1 509 40
989 335 1258 773 238 386 307 877 185 1306 -29 101 -83 247 -95 254 -4 3 3
-30 17 -72 120 -380 68 -846 -134 -1197 -181 -316 -475 -561 -815 -681 -42
-15 -81 -26 -86 -24 -8 4 16 98 196 769 331 1230 332 1234 321 1241 -15 9
-299 82 -303 78 -2 -2 -42 -150 -90 -329 -48 -179 -94 -351 -103 -383 -10 -35
-20 -56 -28 -54 -6 3 -200 55 -431 117 -230 62 -422 115 -425 119 -4 3 15 87
42 186 142 520 309 1153 309 1168 0 19 -43 21 -165 6z"/>
<path d="M1692 2658 c-23 -83 -40 -153 -38 -155 4 -4 599 -163 612 -163 14 0
94 292 83 304 -7 8 -582 166 -605 166 -6 0 -30 -68 -52 -152z"/>
<path d="M1316 1253 c-35 -116 -76 -287 -69 -293 14 -13 607 -170 614 -162 13
15 80 295 72 302 -7 7 -138 44 -503 141 -41 11 -83 22 -92 25 -10 3 -19 -2
-22 -13z"/>
</g>
</svg>
