<svg xmlns="http://www.w3.org/2000/svg" enable-background="new 0 0 93 93" viewBox="0 0 93 93"><path fill="#E0D8EC" d="M10.72653,68.02861h6.6149c1.52664,0,2.77071,1.24402,2.77071,2.8269
			c0,1.52664-1.24407,2.77029-2.77071,2.77029H11.9352c-1.47012,0-2.77034,1.18745-2.77034,2.77034
			c0,1.52669,1.24397,2.77066,2.77034,2.77066h6.87609c1.20774,2.43419,2.73045,4.68143,4.49909,6.70754h47.10513
			c1.76738-2.02632,3.28921-4.27361,4.497-6.70754h3.67408c1.58283,0,2.77024-1.24397,2.77024-2.77066
			c0-1.52627-1.24397-2.77034-2.77024-2.77034h-7.12394c-1.52664,0-2.77035-1.24365-2.77035-2.77029
			c0-1.58289,1.24371-2.8269,2.77035-2.8269H82.2051c1.58289,0,2.82691-1.24371,2.82691-2.77035
			c0-1.52669-1.24402-2.77034-2.82691-2.77034h-6.55865c-1.58289,0-2.8269-1.24402-2.8269-2.77029
			c0-1.58331,1.24402-2.82696,2.8269-2.82696h6.57073c1.52663,0,2.82691-1.18745,2.82691-2.77029
			c0-1.52664-1.24371-2.77071-2.82691-2.77071h-7.2573c-5.12591-10.33358-15.76903-17.44419-28.08621-17.44419
			c-12.31896,0-22.97196,7.10841-28.0974,17.44419H14.4017c-1.58325,0-2.82691,1.30064-2.82691,2.77071
			c0,1.52627,1.24365,2.77029,2.82691,2.77029h7.12389c1.52627,0,2.77034,1.24366,2.77034,2.82696
			c0,1.52627-1.24407,2.77029-2.77034,2.77029H10.72653c-1.52627,0-2.77024,1.24365-2.77024,2.77034
			C7.95629,66.7849,9.20025,68.02861,10.72653,68.02861z"/><line x1="63.902" x2="58.616" y1="24.918" y2="29.961" fill="none"/><line x1="29.1" x2="34.386" y1="24.918" y2="29.961" fill="none"/><path fill="#FED208" d="M63.499,44.60023l0,12.23131c0,9.15487-7.03439,17.03273-16.17905,17.46518
					c-9.76163,0.46162-17.81859-7.31375-17.81859-16.97377V44.60023c0-1.22842,0.99583-2.22425,2.22425-2.22425h29.54913
					C62.50317,42.37598,63.499,43.37181,63.499,44.60023z"/><path fill="#010101" d="M49.8506,55.02371c0-1.85035-1.50014-3.35034-3.35049-3.35034
						c-1.85035,0-3.35034,1.49999-3.35034,3.35034c0,1.26346,0.7076,2.35029,1.74018,2.92105l-1.14657,4.84987h5.4227
						l-1.13634-4.80617C49.10664,57.4313,49.8506,56.31987,49.8506,55.02371z"/><path fill="#FFF" d="M46.49455,22.31627c-7.39553,0-13.4233,6.0277-13.4233,13.4345v6.62521h4.51923v-6.67414
					c0-4.91857,3.99643-8.91486,8.90461-8.91486c4.9185,0,8.91479,3.9963,8.91479,8.91486v6.67414h4.51923v-6.62521
					C59.92912,28.34398,53.90149,22.31627,46.49455,22.31627z"/><path fill="#EF385A" d="M49.53979,81.02805v3.59461c0,0.68885-0.55102,1.25248-1.25248,1.25248h-3.58192
				c-0.68893,0-1.25248-0.56363-1.25248-1.25248v-3.59461c0-0.68885,0.56356-1.25248,1.25248-1.25248h3.58192
				C48.98877,79.77557,49.53979,80.3392,49.53979,81.02805z"/><circle cx="23.5" cy="17.875" r="9" fill="#FFF"/><path fill="#FFF" d="M29.10019,24.60921c0,0.10288,0,0.20568-0.01271,0.30856
						c-1.53007,1.2343-3.47149,1.9543-5.59294,1.9543c-2.10857,0-4.06271-0.73286-5.59278-1.9543
						c-0.01287-0.10288-0.01287-0.20568-0.01287-0.30856c0-3.09851,2.52009-5.60565,5.60565-5.60565
						C26.59313,19.00356,29.10019,21.5107,29.10019,24.60921z"/><path fill="#BBC9E7" d="M29.10019,24.60921c0,0.10288,0,0.20568-0.01271,0.30856
						c-1.53007,1.2343-3.47149,1.9543-5.59294,1.9543c-2.10857,0-4.06271-0.73286-5.59278-1.9543
						c-0.01287-0.10288-0.01287-0.20568-0.01287-0.30856c0-3.09851,2.52009-5.60565,5.60565-5.60565
						C26.59313,19.00356,29.10019,21.5107,29.10019,24.60921z"/><circle cx="23.5" cy="16.915" r="3.155" fill="#BBC9E7"/><circle cx="69.5" cy="17.875" r="9" fill="#FFF"/><path fill="#FFF" d="M75.10018,24.60921c0,0.10288,0,0.20568-0.01271,0.30856
						c-1.53007,1.2343-3.47149,1.9543-5.59293,1.9543c-2.10857,0-4.06271-0.73286-5.59278-1.9543
						c-0.01287-0.10288-0.01287-0.20568-0.01287-0.30856c0-3.09851,2.52009-5.60565,5.60565-5.60565
						C72.59312,19.00356,75.10018,21.5107,75.10018,24.60921z"/><path fill="#BBC9E7" d="M75.10018,24.60921c0,0.10288,0,0.20568-0.01271,0.30856
						c-1.53007,1.2343-3.47149,1.9543-5.59293,1.9543c-2.10857,0-4.06271-0.73286-5.59278-1.9543
						c-0.01287-0.10288-0.01287-0.20568-0.01287-0.30856c0-3.09851,2.52009-5.60565,5.60565-5.60565
						C72.59312,19.00356,75.10018,21.5107,75.10018,24.60921z"/><circle cx="69.5" cy="16.915" r="3.155" fill="#BBC9E7"/><path fill="#2F2666" d="M49.54004,8.625h-1.75v-1.75c0-0.13818-0.1123-0.25-0.25-0.25s-0.25,0.11182-0.25,0.25v1.75h-1.75
			c-0.1377,0-0.25,0.11182-0.25,0.25s0.1123,0.25,0.25,0.25h1.75v1.75c0,0.13818,0.1123,0.25,0.25,0.25s0.25-0.11182,0.25-0.25
			v-1.75h1.75c0.1377,0,0.25-0.11182,0.25-0.25S49.67773,8.625,49.54004,8.625z"/><path fill="#EF385A" d="M20.88867,33.65527h-1.75v-1.75c0-0.13818-0.1123-0.25-0.25-0.25s-0.25,0.11182-0.25,0.25v1.75h-1.75
			c-0.1377,0-0.25,0.11182-0.25,0.25s0.1123,0.25,0.25,0.25h1.75v1.75c0,0.13818,0.1123,0.25,0.25,0.25s0.25-0.11182,0.25-0.25
			v-1.75h1.75c0.1377,0,0.25-0.11182,0.25-0.25S21.02637,33.65527,20.88867,33.65527z"/><path fill="#2F2666" d="M20.88867,51.31054h-1.75v-1.75c0-0.13818-0.1123-0.25-0.25-0.25s-0.25,0.11182-0.25,0.25v1.75h-1.75
			c-0.1377,0-0.25,0.11182-0.25,0.25s0.1123,0.25,0.25,0.25h1.75v1.75c0,0.13818,0.1123,0.25,0.25,0.25s0.25-0.11182,0.25-0.25
			v-1.75h1.75c0.1377,0,0.25-0.11182,0.25-0.25S21.02637,51.31054,20.88867,51.31054z"/><path fill="#4AB74A" d="M74.65527,41.80615h-1.75v-1.75c0-0.13818-0.1123-0.25-0.25-0.25s-0.25,0.11182-0.25,0.25v1.75h-1.75
			c-0.1377,0-0.25,0.11182-0.25,0.25s0.1123,0.25,0.25,0.25h1.75v1.75c0,0.13818,0.1123,0.25,0.25,0.25s0.25-0.11182,0.25-0.25
			v-1.75h1.75c0.1377,0,0.25-0.11182,0.25-0.25S74.79297,41.80615,74.65527,41.80615z"/><g><path fill="#010101" d="M91.5 85.375h-8.77441c-.27637 0-.5.22363-.5.5s.22363.5.5.5H91.5c.27637 0 .5-.22363.5-.5S91.77637 85.375 91.5 85.375zM10.27441 85.375H1.5c-.27637 0-.5.22363-.5.5s.22363.5.5.5h8.77441c.27637 0 .5-.22363.5-.5S10.55078 85.375 10.27441 85.375zM79.15234 85.375H49.86353c.10986-.22888.17651-.48206.17651-.75244v-1.29541h13.20313v-1H50.04004v-1.29932c0-.96631-.78613-1.75244-1.75293-1.75244H47V74.8045c.11475-.00323.229-.00281.34375-.00812 9.33984-.44189 16.65527-8.33301 16.65527-17.96485V44.60009c0-1.50195-1.22266-2.72412-2.72461-2.72412h-.8457v-6.125c0-2.01892-.44092-3.93365-1.21667-5.66736l4.73254-4.51605c1.6545 1.19701 3.6674 1.80743 5.55542 1.80743 5.24016 0 9.5-4.27622 9.5-9.5 0-5.23828-4.26172-9.5-9.5-9.5s-9.5 4.26172-9.5 9.5c0 2.802 1.22668 5.31665 3.1626 7.05707l-4.40698 4.20557c-2.35889-4.35571-6.96985-7.32123-12.26147-7.32123-5.28613 0-9.89282 2.96448-12.25 7.31909l-4.40576-4.20428C31.77368 23.19091 33 20.67651 33 17.875c0-5.23828-4.26172-9.5-9.5-9.5s-9.5 4.26172-9.5 9.5c0 2.93109 1.33569 5.55493 3.42871 7.29895l.00098.00769C17.5297 25.23542 19.83361 27.375 23.5 27.375c1.88631 0 3.83837-.56604 5.55505-1.80969l4.73279 4.51642c-.77563 1.73419-1.21655 3.6496-1.21655 5.66925v6.125h-.8457c-1.50195 0-2.72461 1.22217-2.72461 2.72412v12.72266c0 9.47889 7.58264 17.20319 16.99902 17.46857v4.48407h-1.29492c-.96582 0-1.75195.78613-1.75195 1.75244v1.29932H29.75684v1h13.19629v1.29541c0 .27039.06665.52356.17651.75244H13.84766c-.27637 0-.5.22363-.5.5s.22363.5.5.5c20.7155 0 44.80872 0 65.30469 0 .27637 0 .5-.22363.5-.5S79.42871 85.375 79.15234 85.375zM74.60059 24.65826c-1.5534 1.17178-3.3666 1.71381-5.10645 1.71381-1.78488 0-3.59145-.57887-5.10547-1.7218.03233-.1-.12808-3.31052 3.07007-4.70563.58325.39429 1.28589.62469 2.04126.62469.74878 0 1.44458-.22772 2.02466-.6153C74.5869 21.28768 74.56805 24.55802 74.60059 24.65826zM66.8457 16.91504c0-1.46387 1.19043-2.65479 2.6543-2.65479s2.65527 1.19092 2.65527 2.65479c0 1.46338-1.19141 2.6543-2.65527 2.6543S66.8457 18.37841 66.8457 16.91504zM61 17.875c0-4.68701 3.81348-8.5 8.5-8.5s8.5 3.81299 8.5 8.5c0 2.32513-.94019 4.43359-2.45813 5.96973-.25452-2.01752-1.49561-3.72021-3.22571-4.62872.51636-.63025.83911-1.42462.83911-2.30096 0-2.01514-1.63965-3.65479-3.65527-3.65479-2.01465 0-3.6543 1.63965-3.6543 3.65479 0 .87396.32104 1.66638.83472 2.29584-1.73181.9054-2.97266 2.60846-3.23071 4.62463C61.93701 22.30011 61 20.19567 61 17.875zM28.60059 24.65826c-1.54992 1.16916-3.37052 1.71381-5.10645 1.71381-1.80393 0-3.59896-.58454-5.10547-1.7218.03239-.10005-.12725-3.30563 3.06934-4.70624.58337.39465 1.28625.62531 2.04199.62531.74426 0 1.43567-.22595 2.01379-.60938C28.59024 21.29487 28.56784 24.55808 28.60059 24.65826zM20.8457 16.91504c0-1.46387 1.19043-2.65479 2.6543-2.65479s2.65527 1.19092 2.65527 2.65479c0 1.46338-1.19141 2.6543-2.65527 2.6543S20.8457 18.37841 20.8457 16.91504zM26.31592 19.2163c.51648-.63031.83936-1.4248.83936-2.30127 0-2.01514-1.63965-3.65479-3.65527-3.65479-2.01465 0-3.6543 1.63965-3.6543 3.65479 0 .87329.32056 1.6651.8335 2.29437-1.73169.90533-2.97131 2.61029-3.22925 4.6264C15.93701 22.30041 15 20.1958 15 17.875c0-4.68701 3.81348-8.5 8.5-8.5s8.5 3.81299 8.5 8.5c0 2.3252-.94019 4.43372-2.45825 5.96991C29.28723 21.82745 28.04614 20.12481 26.31592 19.2163zM33.57129 35.75097c0-7.13232 5.79688-12.93457 12.92285-12.93457 7.13184 0 12.93457 5.80225 12.93457 12.93457v6.125h-3.51855v-6.17432c0-5.19141-4.22363-9.41455-9.41504-9.41455-5.18555 0-9.4043 4.22314-9.4043 9.41455v6.17432h-3.51953V35.75097zM54.91016 35.70166v6.17432H38.09082v-6.17432c0-4.63965 3.77051-8.41455 8.4043-8.41455C51.13477 27.28711 54.91016 31.06201 54.91016 35.70166zM30.00098 57.32275V44.60009c0-.95068.77344-1.72412 1.72461-1.72412 22.58041 0 3.9057 0 29.54883 0 .95117 0 1.72461.77344 1.72461 1.72412v12.23145c0 9.09717-6.89746 16.54932-15.70215 16.96582C37.83789 74.2417 30.00098 66.68262 30.00098 57.32275zM49.04004 84.62256c0 .42188-.33105.75244-.75293.75244h-3.58203c-.41504 0-.75195-.3374-.75195-.75244v-3.59473c0-.41504.33691-.75244.75195-.75244h3.58203c.42188 0 .75293.33057.75293.75244V84.62256z"/></g></svg>