<svg xmlns="http://www.w3.org/2000/svg" data-name="Layer 3" viewBox="0 0 64 64"><rect width="40" height="22" x="12" y="32" fill="#2f5571" rx="2"/><path fill="#2f5571" d="M24,58H40a2,2,0,0,1,2,2v2a0,0,0,0,1,0,0H22a0,0,0,0,1,0,0V60A2,2,0,0,1,24,58Z"/><polygon fill="#1f394c" points="37 58 35 54 30 54 28 58 37 58"/><rect width="18" height="4" x="23" y="8" fill="#f2f2f2"/><rect width="18" height="4" x="23" y="18" fill="#f2f2f2"/><rect width="18" height="2" x="23" y="18" fill="#e5e5e5"/><rect width="18" height="2" x="23" y="8" fill="#e5e5e5"/><rect width="22" height="6" x="21" y="12" fill="#662d91"/><path fill="#8557a7" d="M22.63,16a1,1,0,0,0,1,1H43V12H22.63Z"/><rect width="38.679" height="22" x="13.321" y="32" fill="#3e7197" rx="2"/><rect width="22" height="6" x="21" y="22" fill="#662d91"/><path fill="#8557a7" d="M22.63,26a1,1,0,0,0,1,1H43V22H22.63Z"/><rect width="2" height="2" x="23" y="24" fill="#662d91"/><rect width="2" height="2" x="26" y="24" fill="#662d91"/><rect width="2" height="2" x="29" y="24" fill="#662d91"/><rect width="2" height="2" x="43.707" y="42.355"/><rect width="2" height="2" x="47.707" y="42.355"/><rect width="2" height="2" x="55" y="42" fill="#a381bd"/><rect width="2" height="2" x="55" y="38" fill="#a381bd"/><rect width="2" height="2" x="55" y="34" fill="#a381bd"/><rect width="2" height="2" x="55" y="30" fill="#a381bd"/><rect width="2" height="2" x="55" y="26" fill="#a381bd"/><rect width="2" height="2" x="55" y="22" fill="#a381bd"/><rect width="2" height="2" x="55" y="18" fill="#a381bd"/><rect width="2" height="2" x="55" y="14" fill="#a381bd"/><rect width="2" height="2" x="51" y="14" fill="#a381bd"/><rect width="2" height="2" x="47" y="14" fill="#a381bd"/><rect width="2" height="2" x="18" y="42" fill="#a381bd"/><rect width="2" height="2" x="14" y="42" fill="#a381bd"/><rect width="2" height="2" x="7" y="42" fill="#a381bd"/><rect width="2" height="2" x="7" y="38" fill="#a381bd"/><rect width="2" height="2" x="7" y="34" fill="#a381bd"/><rect width="2" height="2" x="7" y="30" fill="#a381bd"/><rect width="2" height="2" x="7" y="26" fill="#a381bd"/><rect width="2" height="2" x="7" y="22" fill="#a381bd"/><rect width="2" height="2" x="7" y="18" fill="#a381bd"/><rect width="2" height="2" x="7" y="14" fill="#a381bd"/><rect width="2" height="2" x="11" y="14" fill="#a381bd"/><rect width="2" height="2" x="15" y="14" fill="#a381bd"/><rect width="2" height="2" x="23" y="14" fill="#662d91"/><rect width="2" height="2" x="26" y="14" fill="#662d91"/><rect width="2" height="2" x="29" y="14" fill="#662d91"/><rect width="22" height="6" x="21" y="2" fill="#662d91"/><path fill="#8557a7" d="M22.63,6a1,1,0,0,0,1,1H43V2H22.63Z"/><rect width="2" height="2" x="23" y="4" fill="#662d91"/><rect width="2" height="2" x="26" y="4" fill="#662d91"/><rect width="2" height="2" x="29" y="4" fill="#662d91"/><path d="M40.046,44.354v2H36.969a6.9,6.9,0,0,0-.286-1.223L39.6,43.186a1,1,0,0,0,.445-.832v-2h-2v1.464l-2.293,1.529a5.3,5.3,0,0,0-1.283-1.239,2.949,2.949,0,0,0-.116-3.649l2.4-2.4-1.414-1.415-2.761,2.761a2.7,2.7,0,0,0-1.064,0l-2.761-2.761-1.414,1.415,2.4,2.4a2.95,2.95,0,0,0-.114,3.65h-.008a5.329,5.329,0,0,0-1.277,1.238l-2.292-1.529V40.354h-2v2a1,1,0,0,0,.445.832l2.917,1.944a6.843,6.843,0,0,0-.285,1.224H24.046v-2h-2v3a1,1,0,0,0,1,1h4.075a6.853,6.853,0,0,0,.284,1.225l-2.232,1.488-1.42-1.421-1.414,1.415,2,2a1,1,0,0,0,1.262.125l2.733-1.823a4.667,4.667,0,0,0,3.712,1.991,4.221,4.221,0,0,0,1.008-.122,4.379,4.379,0,0,0,.938-.35,4.544,4.544,0,0,0,.437-.253,5.276,5.276,0,0,0,1.329-1.266l2.733,1.823a1,1,0,0,0,1.262-.125l2-2-1.414-1.415-1.421,1.421-2.231-1.488a6.94,6.94,0,0,0,.284-1.225h4.075a1,1,0,0,0,1-1v-3Z" opacity=".2"/><rect width="2" height="5.046" x="28.784" y="33.261" fill="#a381bd" transform="rotate(-45 29.783 35.784)"/><rect width="4.592" height="2" x="32.08" y="34.624" fill="#a381bd" transform="rotate(-45 34.377 35.624)"/><circle cx="32" cy="39" r="3" fill="#4d226d"/><path fill="#a381bd" d="M27.445 43.832l-3-2A1 1 0 0 1 24 41V39h2v1.465l2.555 1.7zM28 47H23a1 1 0 0 1-1-1V43h2v2h4zM25 52a1 1 0 0 1-.707-.293l-2-2 1.414-1.414 1.42 1.42 2.318-1.545 1.11 1.664-3 2A1 1 0 0 1 25 52zM36.555 43.832l-1.11-1.664L38 40.465V39h2v2a1 1 0 0 1-.445.832zM41 47H36V45h4V43h2v3A1 1 0 0 1 41 47zM39 52a1 1 0 0 1-.555-.168l-3-2 1.11-1.664 2.318 1.545 1.42-1.42 1.414 1.414-2 2A1 1 0 0 1 39 52z"/><path fill="#662d91" d="M34.383,40.724A6.257,6.257,0,0,1,37,46c0,3.314-2.239,6-5,6s-5-2.686-5-6a6.27,6.27,0,0,1,2.569-5.244Z"/><path fill="#8557a7" d="M34.383,40.724,32,40.74V52c2.761,0,5-2.686,5-6A6.257,6.257,0,0,0,34.383,40.724Z"/><rect width="2" height="2" x="44" y="42" fill="#a381bd"/><rect width="2" height="2" x="48" y="42" fill="#a381bd"/><rect width="2" height="2" x="13.707" y="42.355"/><rect width="2" height="2" x="17.707" y="42.355"/><rect width="2" height="2" x="14" y="42" fill="#a381bd"/><rect width="2" height="2" x="18" y="42" fill="#a381bd"/></svg>