<svg xmlns="http://www.w3.org/2000/svg" xmlns:xlink="http://www.w3.org/1999/xlink" viewBox="0 0 64 64"><defs><linearGradient id="b" x1="16" x2="48" y1="32" y2="32" gradientUnits="userSpaceOnUse"><stop offset="0" stop-color="#015bbb"/><stop offset="1" stop-color="#02aff8"/></linearGradient><linearGradient id="a" x1="20" x2="44" y1="32.5" y2="32.5" gradientUnits="userSpaceOnUse"><stop offset="0" stop-color="#02aff8"/><stop offset="1" stop-color="#02dbf8"/></linearGradient><linearGradient id="c" x1="6" x2="12" y1="55" y2="55" xlink:href="#a"/><linearGradient id="d" x1="52" x2="58" y1="55" y2="55" xlink:href="#a"/><linearGradient id="e" x1="28" x2="36" y1="36" y2="36" xlink:href="#a"/><linearGradient id="f" x1="6" x2="12" y1="39" y2="39" xlink:href="#a"/><linearGradient id="g" x1="52" x2="58" y1="39" y2="39" xlink:href="#a"/><linearGradient id="h" x1="6" x2="12" y1="23" y2="23" xlink:href="#a"/><linearGradient id="i" x1="52" x2="58" y1="23" y2="23" xlink:href="#a"/></defs><g data-name="system protection"><path fill="url(#b)" d="M48,11V53a3.8,3.8,0,0,1-.38,1.68,4.67,4.67,0,0,1-.27.49,3.79,3.79,0,0,1-.34.45,3.59,3.59,0,0,1-.39.39,4.08,4.08,0,0,1-.39.31,3.4,3.4,0,0,1-.68.36,1.88,1.88,0,0,1-.3.12,3.8,3.8,0,0,1-.51.13l-.3,0L44,57H20l-.44,0-.3,0a3.8,3.8,0,0,1-.51-.13,1.88,1.88,0,0,1-.3-.12,3.4,3.4,0,0,1-.68-.36,4.08,4.08,0,0,1-.39-.31,3.59,3.59,0,0,1-.39-.39,3.79,3.79,0,0,1-.34-.45,4.67,4.67,0,0,1-.27-.49A3.8,3.8,0,0,1,16,53V11a4,4,0,0,1,4-4H44A4,4,0,0,1,48,11Z"/><circle cx="25" cy="10" r="1" fill="#015bbb"/><path fill="#015bbb" d="M39,11H30a1,1,0,0,1,0-2h9a1,1,0,0,1,0,2Z"/><rect width="24" height="39" x="20" y="13" fill="url(#a)"/><path fill="#fff" d="M37,31a1,1,0,0,1-1-1V27a4,4,0,0,0-8,0v3a1,1,0,0,1-2,0V27a6,6,0,0,1,12,0v3A1,1,0,0,1,37,31Z"/><path fill="#0c408d" d="M9 54a1 1 0 0 1-1-1V50a4 4 0 0 1 4-4H26a2 2 0 0 0 2-2V42a1 1 0 0 1 2 0v2a4 4 0 0 1-4 4H12a2 2 0 0 0-2 2v3A1 1 0 0 1 9 54zM55 54a1 1 0 0 1-1-1V50a2 2 0 0 0-2-2H38a4 4 0 0 1-4-4V42a1 1 0 0 1 2 0v2a2 2 0 0 0 2 2H52a4 4 0 0 1 4 4v3A1 1 0 0 1 55 54z"/><circle cx="9" cy="55" r="3" fill="url(#c)"/><circle cx="55" cy="55" r="3" fill="url(#d)"/><path fill="#0c408d" d="M24 40H11a1 1 0 0 1 0-2H24a1 1 0 0 1 0 2zM53 40H40a1 1 0 0 1 0-2H53a1 1 0 0 1 0 2zM24 34H12a4 4 0 0 1-4-4V25a1 1 0 0 1 2 0v5a2 2 0 0 0 2 2H24a1 1 0 0 1 0 2zM52 34H40a1 1 0 0 1 0-2H52a2 2 0 0 0 2-2V25a1 1 0 0 1 2 0v5A4 4 0 0 1 52 34z"/><rect width="16" height="12" x="24" y="30" fill="#fff" rx="2" ry="2"/><path fill="url(#e)" d="M31,39a1,1,0,0,1-.71-.29l-2-2a1,1,0,0,1,1.42-1.42L31,36.59l3.29-3.3a1,1,0,0,1,1.42,1.42l-4,4A1,1,0,0,1,31,39Z"/><circle cx="9" cy="39" r="3" fill="url(#f)"/><circle cx="55" cy="39" r="3" fill="url(#g)"/><circle cx="9" cy="23" r="3" fill="url(#h)"/><circle cx="55" cy="23" r="3" fill="url(#i)"/></g></svg>